<svg width="256" height="276" viewBox="0 0 256 276" fill="none" xmlns="http://www.w3.org/2000/svg">
<path d="M45.1942 72.8492C42.1009 82.1412 40.4049 91.9565 40.1062 102.295C39.7329 115.152 40.3436 128.449 41.9382 142.186" stroke="#978D91" stroke-width="2"/>
<path d="M41.9375 142.186L42.0415 147.008" stroke="#D1B1A3" stroke-width="2"/>
<path d="M42.042 147.007C42.3407 150.716 43.106 154.356 44.338 157.927" stroke="#F6D1BF" stroke-width="2"/>
<path d="M44.3379 157.927C48.5299 180.567 56.3379 202.794 68.3139 222.036" stroke="#978D91" stroke-width="2"/>
<path d="M68.3145 222.036L68.5384 222.399" stroke="#A0CAC5" stroke-width="2"/>
<path d="M68.5389 222.399L63.419 225.66C63.1683 225.815 63.139 226.01 63.331 226.246C97.619 268.604 160.371 268.388 194.619 226.229C194.827 225.976 194.792 225.766 194.515 225.599L188.043 221.649" stroke="#E8EEEE" stroke-width="2"/>
<path d="M188.042 221.648C191.589 215.778 194.666 209.846 197.274 203.855" stroke="#978D91" stroke-width="2"/>
<path d="M197.275 203.855C203.281 189.831 207.681 175.24 210.475 160.083" stroke="#91888C" stroke-width="2"/>
<path d="M210.475 160.083C210.933 158.944 211.435 157.849 211.979 156.797C214.96 151.012 215.456 145.021 213.467 138.822" stroke="#EDC8B7" stroke-width="2"/>
<path d="M213.467 138.822C218.243 104.961 215.971 70.2105 193.675 43.6455" stroke="#978D91" stroke-width="2"/>
<path d="M193.673 43.6455C178.625 25.6279 148.785 8.12777 126.433 22.6178C126.322 22.6895 126.197 22.731 126.069 22.7385C125.94 22.746 125.813 22.7194 125.697 22.6609C112.169 15.6488 98.3854 16.5889 84.8254 23.4889C65.7454 33.192 51.8734 51.4425 45.1934 72.8498" stroke="#A69B9D" stroke-width="2"/>
<path d="M193.673 43.6455C193.033 44.1918 192.983 44.7581 193.521 45.3446C197.079 49.2374 200.1 53.6879 202.585 58.6962C202.671 58.8704 202.715 59.0651 202.714 59.2625C202.712 59.4598 202.664 59.6534 202.575 59.8258C202.486 59.9982 202.358 60.1439 202.203 60.2493C202.049 60.3548 201.872 60.4169 201.689 60.4298C190.057 61.1974 177.617 59.8174 165.865 59.0498C160.393 58.6875 154.273 53.8403 149.161 52.1326C130.74 46.0031 112.983 48.0587 95.8894 58.2994C92.9534 60.0589 87.3294 66.1827 82.3534 67.6834C70.3 71.3002 57.9134 73.0223 45.1934 72.8498" stroke="#3E2A30" stroke-width="2"/>
<path d="M213.466 138.821C210.986 133.595 207.279 131.349 202.346 132.085C198.626 132.646 197.354 137.027 195.786 141.211" stroke="#85574A" stroke-width="2"/>
<path d="M195.785 141.211C191.097 100.389 170.545 60.2226 127.465 60.5676C87.8493 60.8867 68.3773 97.3446 61.7373 134.208" stroke="#7B4E43" stroke-width="2"/>
<path d="M61.7388 134.207L60.6428 140.676C60.5788 141.079 60.4909 141.084 60.3789 140.693C59.4909 137.485 56.1868 130.723 52.2988 131.361C46.6988 132.281 43.2962 135.74 42.0908 141.737" stroke="#8F6152" stroke-width="2"/>
<path d="M42.0895 141.738C42.1695 141.962 42.1188 142.112 41.9375 142.187" stroke="#6A4036" stroke-width="2"/>
<path d="M210.475 160.083C205.643 163.907 200.217 164.858 194.195 162.938C193.689 162.771 193.326 162.949 193.107 163.473C188.211 175.157 181.086 184.788 171.731 192.366C163.299 199.197 152.795 203.191 142.403 206.028" stroke="#7F5245" stroke-width="2"/>
<path d="M142.403 206.028C138.046 207.04 133.427 207.606 128.547 207.727" stroke="#D18969" stroke-width="2"/>
<path d="M128.546 207.728C127.863 202.714 127.85 197.698 128.506 192.678" stroke="#E59C77" stroke-width="2"/>
<path d="M128.506 192.677C134.047 192.821 139.157 190.694 143.834 186.295" stroke="#D87D68" stroke-width="2"/>
<path d="M143.834 186.294C147.002 182.953 149.018 178.649 149.882 173.382C150.226 171.286 149.89 168.087 147.146 168.958" stroke="#C26B59" stroke-width="2"/>
<path d="M147.146 168.957C144.138 168.854 140.458 168.972 136.106 169.311C128.117 169.943 119.717 169.659 110.906 168.457" stroke="#EDC8B7" stroke-width="2"/>
<path d="M110.906 168.459C111.813 167.821 112.546 167.524 113.106 167.57C118.413 168.019 123.722 168.329 129.034 168.502C129.65 168.519 130.13 168.174 130.65 167.872C130.837 167.757 130.901 167.588 130.842 167.363L130.666 166.682C130.565 166.291 130.605 165.917 130.786 165.561C131.138 164.865 131.325 164.112 131.346 163.301C131.357 163.037 131.24 162.904 130.994 162.904C126.666 162.853 122.826 163.094 122.154 157.134C122.138 156.996 122.165 156.858 122.231 156.739C122.297 156.62 122.397 156.528 122.518 156.477C122.638 156.426 122.771 156.419 122.896 156.456C123.021 156.494 123.132 156.575 123.21 156.686C125.6 160.13 128.466 160.837 131.81 158.807C137.594 155.297 130.706 151.726 128.194 150.415C127.866 150.245 127.589 149.978 127.395 149.645C127.201 149.313 127.098 148.928 127.098 148.535L127.106 71.9278" stroke="#E59C77" stroke-width="2"/>
<path d="M195.786 141.212C195.754 142.247 195.424 143.256 194.794 144.24C194.645 144.475 194.536 144.455 194.466 144.179C193.746 141.376 193.514 138.495 192.674 135.856C190.573 129.226 189.066 124.71 188.154 122.306C177.914 95.2668 156.25 71.1512 127.106 71.9275" stroke="#D18969" stroke-width="2"/>
<path d="M127.105 71.9278C95.8573 74.3083 74.0413 104.513 63.2813 133.821C63.18 134.085 62.9986 134.215 62.7373 134.209H61.7373" stroke="#DB9271" stroke-width="2"/>
<path d="M110.907 168.457L110.275 168.707" stroke="#F6D1BF" stroke-width="2"/>
<path d="M110.274 168.708C103.09 168.259 111.898 183.663 113.546 185.621" stroke="#CB7461" stroke-width="2"/>
<path d="M113.547 185.621C117.558 190.077 122.544 192.429 128.507 192.676" stroke="#E28770" stroke-width="2"/>
<path d="M128.547 207.728C123.982 207.866 119.382 207.288 114.747 205.994" stroke="#DB9271" stroke-width="2"/>
<path d="M114.746 205.993C95.4344 201.611 78.6184 190.649 68.1544 172.321C66.8958 170.113 65.3438 167.1 63.4984 163.282C63.3704 163.018 63.1758 162.926 62.9145 163.006C57.7465 164.593 51.3704 164.817 47.1064 160.695" stroke="#895C4D" stroke-width="2"/>
<path d="M47.1059 160.695L44.3379 157.927" stroke="#8F6152" stroke-width="2"/>
<path d="M42.042 147.008C42.4633 145.248 42.4793 143.492 42.09 141.738" stroke="#C98564" stroke-width="2"/>
<path d="M143.835 186.294C140.107 180.733 135.323 177.654 129.483 177.056C123.573 176.452 118.24 178.712 113.483 183.835C113.301 184.031 113.283 184.244 113.427 184.474C113.715 184.928 113.755 185.31 113.547 185.621" stroke="#BF5651" stroke-width="2"/>
<path d="M147.147 168.958C137.003 176.246 120.099 178.359 110.275 168.708" stroke="#D3A0A0" stroke-width="2"/>
<path d="M149.906 208.288C149.432 208.455 149.229 208.843 149.298 209.452C149.336 209.797 149.2 210.001 148.89 210.065L147.21 210.401C146.933 210.459 146.669 210.556 146.418 210.694C137.77 215.55 128.258 215.559 119.178 212.902C115.818 211.919 112.698 210.226 109.818 207.822" stroke="#D18969" stroke-width="2"/>
<path d="M197.274 203.855C196.24 202.464 196.328 201.138 197.538 199.879C197.721 199.688 197.846 199.445 197.898 199.18C198.546 195.653 200.53 192.867 201.386 189.857C203.026 184.095 205.122 178.17 206.402 172.322C206.605 171.408 207.034 170.284 207.69 168.95C208.245 167.817 208.68 165.756 208.994 162.766C209.016 162.547 208.933 162.481 208.746 162.567C206.149 163.798 204.216 165.71 202.946 168.303C194.578 185.398 187.13 199.258 172.762 211.445C172.138 211.974 171.842 212.834 171.874 214.024" stroke="#29171F" stroke-width="2"/>
<path d="M171.874 214.023C165.538 211.62 158.999 209.918 152.258 208.917" stroke="#325553" stroke-width="2"/>
<path d="M152.258 208.918L149.906 208.289" stroke="#7F5245" stroke-width="2"/>
<path d="M149.907 208.288L142.403 206.028" stroke="#75493E" stroke-width="2"/>
<path d="M47.1057 160.695C46.7431 161.362 46.8631 161.893 47.4657 162.29C50.7057 164.438 53.4818 169.302 55.2178 172.907C61.0018 184.922 68.1777 196.212 77.1857 205.682C79.7831 208.408 82.4177 211.148 85.0897 213.902" stroke="#29171F" stroke-width="2"/>
<path d="M85.0904 213.903L68.3145 222.037" stroke="#385A58" stroke-width="2"/>
<path d="M114.746 205.994L109.818 207.823" stroke="#75493E" stroke-width="2"/>
<path d="M109.818 207.822L104.834 208.883" stroke="#7F5245" stroke-width="2"/>
<path d="M104.835 208.883C98.1948 209.924 91.6135 211.597 85.0908 213.903" stroke="#325553" stroke-width="2"/>
<path d="M152.258 208.918C149.97 216.508 145.509 221.775 138.874 224.719C128.97 229.118 115.554 227.048 108.938 217.181C107.669 215.283 106.301 212.517 104.834 208.883" stroke="#8E957E" stroke-width="2"/>
<path d="M188.457 221.924C186.606 224.73 184.07 227.165 180.849 229.229C147.289 250.705 101.105 249.748 69.8571 223.735C69.3718 223.332 68.9318 222.887 68.5371 222.398" stroke="#89BBB5" stroke-width="2"/>
<path d="M188.042 221.649C188.181 221.741 188.319 221.833 188.458 221.925" stroke="#807D81" stroke-width="2"/>
<path d="M188.459 221.925L171.875 214.025" stroke="#385A58" stroke-width="2"/>
<path d="M66.898 43.1713C63.37 49.3641 70.73 50.9424 74.586 50.6405C75.674 50.56 77.8794 50.1518 81.202 49.4158C87.21 48.0962 124.018 36.0039 120.402 25.8609C120.301 25.5849 120.13 25.3751 119.89 25.2313C117.922 24.0468 115.933 23.4833 113.922 23.5408C100.013 23.9203 87.0447 27.9568 75.0181 35.6503C72.2821 37.4012 68.33 40.6701 66.898 43.1713Z" stroke="#5C4545" stroke-width="2"/>
<path d="M69.3133 55.0716C69.2429 54.5573 69.0186 54.0727 68.6532 53.6453C68.2879 53.2179 67.7886 52.8563 67.1839 52.5809C66.5793 52.3056 65.8811 52.122 65.1292 52.0405C64.3773 51.9591 63.5864 51.9815 62.8017 52.1065C62.017 52.2314 61.2539 52.4564 60.5559 52.7686C59.8579 53.0808 59.2387 53.4742 58.7337 53.9262C58.2287 54.3782 57.8477 54.88 57.6125 55.403C57.3773 55.926 57.2925 56.4598 57.3629 56.9741C57.4333 57.4884 57.6576 57.9731 58.023 58.4005C58.3884 58.8278 58.8876 59.1895 59.4923 59.4649C60.097 59.7402 60.7952 59.9238 61.5471 60.0052C62.299 60.0867 63.0898 60.0643 63.8745 59.9393C64.6592 59.8144 65.4223 59.5894 66.1203 59.2772C66.8183 58.965 67.4375 58.5716 67.9425 58.1196C68.4476 57.6676 68.8286 57.1658 69.0638 56.6428C69.299 56.1198 69.3837 55.5859 69.3133 55.0716Z" stroke="#5C4545" stroke-width="2"/>
<path d="M159.746 105.108C150.818 102.702 150.834 114.173 157.17 114.949C163.692 115.748 170.22 116.781 176.754 118.046C177.09 118.115 177.3 117.968 177.386 117.606C178.698 111.999 163.402 106.091 159.746 105.108Z" stroke="#7F5245" stroke-width="2"/>
<path d="M149.498 144.989C153.514 159.238 168.602 159.376 175.666 148.06" stroke="#EDC8B7" stroke-width="2"/>
<path d="M175.666 148.059L177.866 142.988C178.005 142.666 178.237 142.536 178.562 142.599C179.063 142.697 179.415 142.548 179.618 142.151C179.694 142.005 179.736 141.84 179.74 141.672C179.745 141.504 179.711 141.337 179.642 141.185L178.858 139.486C178.629 138.986 178.77 138.69 179.282 138.598C182.498 138.002 182.162 135.294 179.05 136.027C178.421 136.177 177.946 135.947 177.626 135.337C173.082 126.566 159.306 121.037 152.266 130.059C149.029 134.205 148.106 139.181 149.498 144.989" stroke="#794D3B" stroke-width="2"/>
<path d="M175.666 148.06C177.874 139.049 175.01 133.087 167.074 130.171C166.861 129.844 166.61 129.76 166.322 129.921C165.992 130.111 166.008 130.252 166.37 130.344C168.312 130.833 169.658 132.04 170.41 133.966" stroke="#8A8383" stroke-width="2"/>
<path d="M170.41 133.967C169.695 134.772 169.143 134.76 168.754 133.932C168.678 133.756 168.543 133.617 168.376 133.544C168.21 133.471 168.023 133.468 167.855 133.537C167.687 133.606 167.549 133.741 167.469 133.915C167.389 134.089 167.374 134.29 167.426 134.476C170.93 148.957 153.602 150.88 154.322 138.572C154.329 138.435 154.298 138.298 154.232 138.18C154.167 138.061 154.07 137.967 153.954 137.908C153.682 137.765 153.41 137.753 153.138 137.874" stroke="#502A1F" stroke-width="2"/>
<path d="M153.138 137.874L153.042 136.287C153.037 136.19 153.003 136.099 152.945 136.026C152.887 135.952 152.809 135.901 152.721 135.88C152.633 135.859 152.541 135.868 152.457 135.907C152.374 135.947 152.304 136.013 152.258 136.097C150.674 139.121 149.754 142.086 149.498 144.989" stroke="#8A8383" stroke-width="2"/>
<path d="M153.138 137.874C150.834 143.774 153.418 151.243 159.522 152.08C169.394 153.434 173.674 142.532 170.41 133.967" stroke="#C4A49B" stroke-width="2"/>
<path d="M200.722 139.305C205.666 137.933 209.554 143.988 210.41 148.404C210.431 148.542 210.519 148.623 210.674 148.646C210.914 148.686 210.999 148.58 210.93 148.327C209.602 143.35 205.61 137.192 199.994 138.762C199.876 138.79 199.799 138.865 199.762 138.986C199.708 139.158 199.836 139.273 200.146 139.331C200.335 139.37 200.533 139.362 200.722 139.305Z" stroke="#D18969" stroke-width="2"/>
<path d="M185.106 163.515C185.078 162.671 184.744 161.847 184.126 161.09C183.507 160.333 182.615 159.659 181.5 159.105C180.386 158.551 179.07 158.129 177.63 157.862C176.189 157.596 174.651 157.49 173.103 157.551C169.978 157.675 167.004 158.471 164.835 159.764C162.666 161.057 161.48 162.742 161.538 164.447C161.567 165.291 161.9 166.115 162.519 166.872C163.138 167.629 164.03 168.303 165.144 168.857C166.259 169.411 167.574 169.833 169.015 170.1C170.455 170.366 171.993 170.472 173.541 170.411C176.666 170.287 179.641 169.492 181.809 168.198C183.978 166.905 185.164 165.221 185.106 163.515Z" stroke="#D87D68" stroke-width="2"/>
<path d="M103.361 111.679C104.297 108.428 102.521 104.072 98.7213 104.926C92.6013 106.289 82.0973 110.282 78.6813 116.371C78.5708 116.57 78.5155 116.798 78.522 117.029C78.5285 117.261 78.5964 117.485 78.7178 117.676C78.8392 117.867 79.0088 118.016 79.2066 118.106C79.4043 118.196 79.6218 118.222 79.8333 118.183C85.0653 117.165 90.4493 116.337 95.9853 115.699C99.6653 115.276 102.313 115.362 103.361 111.679Z" stroke="#8F6152" stroke-width="2"/>
<path d="M79.627 146.68C86.035 159.35 102.259 159.963 106.411 144.688" stroke="#F6D1BF" stroke-width="2"/>
<path d="M106.41 144.688C110.114 121.219 85.7142 121.418 77.0182 136.132C76.9557 136.237 76.8723 136.325 76.774 136.391C76.6757 136.457 76.5651 136.498 76.4502 136.511L74.8022 136.71C74.7199 136.721 74.642 136.756 74.5772 136.811C74.5124 136.867 74.4631 136.941 74.4349 137.025C74.4067 137.109 74.4007 137.2 74.4175 137.287C74.4343 137.375 74.4734 137.456 74.5302 137.521L76.5062 139.737C76.7142 139.967 76.7862 140.24 76.7222 140.556C76.5942 141.246 76.2129 141.721 75.5782 141.98C75.515 142.005 75.4582 142.046 75.4126 142.099C75.367 142.152 75.3338 142.217 75.3158 142.287C75.2978 142.357 75.2955 142.43 75.3092 142.501C75.3228 142.572 75.3519 142.639 75.3942 142.696C75.9275 143.403 76.6289 143.653 77.4982 143.446C77.6248 143.416 77.757 143.432 77.8752 143.492C77.9935 143.551 78.0913 143.65 78.1542 143.774L79.6262 146.68" stroke="#785340" stroke-width="2"/>
<path d="M106.409 144.688C106.073 141.87 105.191 139.214 103.761 136.718C103.607 136.454 103.46 136.46 103.321 136.736C103.124 137.132 103.039 137.587 103.065 138.098" stroke="#807F7F" stroke-width="2"/>
<path d="M103.066 138.098H102.53C102.258 138.092 102.09 138.233 102.026 138.521C101.042 143.006 99.9381 147.387 94.6181 146.775C90.0341 146.257 87.8581 141.712 88.2901 137.003" stroke="#45261C" stroke-width="2"/>
<path d="M88.291 137.002L89.4271 134.294C89.5391 134.018 89.731 133.837 90.003 133.75C91.875 133.152 93.8404 133.382 95.899 134.44" stroke="#200C07" stroke-width="2"/>
<path d="M95.8984 134.442C102.602 139.901 103.066 127.352 96.9625 130.785" stroke="#807F7F" stroke-width="2"/>
<path d="M96.9615 130.783C97.3135 130.226 97.3135 129.702 96.9615 129.214C96.7962 128.978 96.5775 128.843 96.3055 128.808C93.2922 128.417 90.5028 128.978 87.9375 130.49" stroke="#200C07" stroke-width="2"/>
<path d="M87.9374 130.49C81.0681 133.492 78.2974 138.888 79.6254 146.679" stroke="#807F7F" stroke-width="2"/>
<path d="M96.9619 130.783C96.2045 131.675 95.8498 132.894 95.8978 134.44" stroke="#9E8A86" stroke-width="2"/>
<path d="M88.2904 137.002C88.0984 135.317 87.3704 133.943 86.1064 132.879" stroke="#643123" stroke-width="2"/>
<path d="M86.1064 132.879L87.9384 130.49" stroke="#9E8A86" stroke-width="2"/>
<path d="M86.1052 132.879C83.3318 137.588 83.3478 142.355 86.1532 147.179C92.2812 157.71 107.353 150.215 103.065 138.097" stroke="#C4A49B" stroke-width="2"/>
<path d="M58.1942 139.149C56.4128 138.384 54.5088 138.399 52.4822 139.192C50.8288 139.836 49.6262 140.659 48.8742 141.659C48.8634 141.671 48.855 141.685 48.8494 141.699C48.8439 141.714 48.8413 141.73 48.8419 141.746C48.8424 141.762 48.8461 141.778 48.8526 141.792C48.8592 141.807 48.8684 141.82 48.88 141.83C48.8916 141.841 48.9051 141.849 48.9199 141.855C48.9347 141.86 48.9505 141.863 48.9663 141.862C48.9821 141.861 48.9976 141.858 49.012 141.851C49.0264 141.844 49.0394 141.835 49.0502 141.823C51.2902 139.402 53.9702 138.58 57.0902 139.356C57.2397 139.393 57.4229 139.417 57.6073 139.425C57.7917 139.433 57.9655 139.423 58.0977 139.399C58.23 139.374 58.3122 139.335 58.3299 139.29C58.3476 139.244 58.2995 139.194 58.1942 139.149Z" stroke="#DB9271" stroke-width="2"/>
<path d="M92.1109 163.855C92.1294 163.04 91.8647 162.225 91.3319 161.458C90.7992 160.69 90.0088 159.984 89.0059 159.381C88.003 158.778 86.8073 158.289 85.487 157.942C84.1667 157.595 82.7476 157.397 81.3109 157.359C79.8741 157.321 78.4477 157.444 77.1133 157.721C75.7788 157.998 74.5623 158.424 73.5333 158.974C72.5043 159.523 71.6829 160.186 71.116 160.925C70.5492 161.664 70.2479 162.464 70.2294 163.279C70.2109 164.094 70.4756 164.909 71.0084 165.677C71.5411 166.444 72.3315 167.15 73.3344 167.753C74.3372 168.357 75.533 168.846 76.8533 169.193C78.1736 169.539 79.5927 169.738 81.0294 169.775C82.4662 169.813 83.8925 169.69 85.227 169.413C86.5614 169.136 87.7779 168.711 88.8069 168.161C89.8359 167.611 90.6573 166.948 91.2242 166.209C91.7911 165.471 92.0924 164.671 92.1109 163.855Z" stroke="#E28770" stroke-width="2"/>
<path d="M159.234 131.395C159.057 131.097 158.82 130.845 158.537 130.653C158.254 130.461 157.929 130.332 157.582 130.275C157.235 130.218 156.872 130.233 156.514 130.319C156.157 130.405 155.811 130.561 155.496 130.777C155.182 130.994 154.906 131.267 154.683 131.581C154.461 131.895 154.296 132.244 154.199 132.608C154.101 132.972 154.073 133.343 154.116 133.701C154.159 134.059 154.272 134.397 154.449 134.694C154.625 134.992 154.862 135.244 155.145 135.436C155.429 135.628 155.753 135.757 156.1 135.814C156.447 135.871 156.81 135.857 157.168 135.77C157.526 135.684 157.872 135.528 158.186 135.312C158.5 135.095 158.777 134.822 158.999 134.508C159.222 134.194 159.387 133.845 159.484 133.481C159.581 133.117 159.609 132.746 159.566 132.388C159.523 132.03 159.41 131.693 159.234 131.395Z" stroke="#8A8383" stroke-width="2"/>
<path d="M193.673 43.6455C193.033 44.1918 192.983 44.7581 193.521 45.3446C197.079 49.2374 200.1 53.6879 202.585 58.6962C202.671 58.8704 202.715 59.0651 202.714 59.2624C202.712 59.4598 202.664 59.6534 202.575 59.8258C202.486 59.9982 202.358 60.1438 202.203 60.2493C202.049 60.3548 201.872 60.4169 201.689 60.4298C190.057 61.1974 177.617 59.8174 165.865 59.0498C160.393 58.6875 154.273 53.8403 149.161 52.1326C130.74 46.0031 112.983 48.0586 95.8894 58.2994C92.9534 60.0589 87.3294 66.1827 82.3534 67.6834C70.3 71.3002 57.9134 73.0223 45.1934 72.8498C51.8734 51.4425 65.7454 33.192 84.8254 23.4889C98.3854 16.5889 112.169 15.6488 125.697 22.6609C125.813 22.7194 125.94 22.746 126.069 22.7385C126.197 22.731 126.322 22.6895 126.433 22.6178C148.785 8.12777 178.625 25.6279 193.673 43.6455ZM66.8974 43.1712C63.3694 49.3639 70.7294 50.9423 74.5854 50.6404C75.6734 50.5599 77.8787 50.1517 81.2014 49.4157C87.2094 48.096 124.017 36.0038 120.401 25.8608C120.3 25.5848 120.129 25.3749 119.889 25.2312C117.921 24.0467 115.932 23.4832 113.921 23.5407C100.012 23.9202 87.0441 27.9566 75.0174 35.6501C72.2814 37.401 68.3294 40.6699 66.8974 43.1712ZM69.3125 55.0711C69.2421 54.5568 69.0178 54.0722 68.6525 53.6448C68.2871 53.2175 67.7879 52.8558 67.1832 52.5804C66.5785 52.3051 65.8803 52.1215 65.1284 52.0401C64.3765 51.9587 63.5857 51.981 62.801 52.106C62.0163 52.2309 61.2532 52.4559 60.5552 52.7681C59.8572 53.0803 59.238 53.4737 58.733 53.9257C58.2279 54.3777 57.8469 54.8795 57.6117 55.4025C57.3765 55.9255 57.2917 56.4593 57.3622 56.9736C57.4326 57.488 57.6569 57.9726 58.0223 58.4C58.3876 58.8274 58.8869 59.189 59.4916 59.4644C60.0962 59.7397 60.7944 59.9234 61.5463 60.0048C62.2982 60.0862 63.0891 60.0638 63.8738 59.9389C64.6585 59.8139 65.4216 59.5889 66.1196 59.2767C66.8176 58.9645 67.4368 58.5711 67.9418 58.1191C68.4468 57.6671 68.8278 57.1653 69.063 56.6423C69.2982 56.1193 69.383 55.5854 69.3125 55.0711Z" fill="#4D383B"/>
<path d="M74.586 50.6405C70.73 50.9424 63.37 49.3641 66.898 43.1713C68.33 40.6701 72.2821 37.4012 75.0181 35.6503C87.0447 27.9568 100.013 23.9203 113.922 23.5408C115.933 23.4833 117.922 24.0468 119.89 25.2313C120.13 25.3751 120.301 25.5849 120.402 25.8609C124.018 36.0039 87.21 48.0962 81.202 49.4158C77.8794 50.1518 75.674 50.56 74.586 50.6405Z" fill="#6A514E"/>
<path d="M193.674 43.6455C215.97 70.2105 218.242 104.961 213.466 138.822C210.986 133.596 207.28 131.35 202.346 132.086C198.626 132.647 197.354 137.028 195.786 141.212C191.098 100.389 170.546 60.2228 127.466 60.5678C87.8502 60.8869 68.3782 97.3448 61.7382 134.208L60.6422 140.677C60.5782 141.079 60.4903 141.085 60.3783 140.694C59.4903 137.486 56.1862 130.724 52.2982 131.362C46.6982 132.282 43.2956 135.74 42.0902 141.738C42.1702 141.962 42.1196 142.111 41.9382 142.186C40.3436 128.449 39.7329 115.153 40.1062 102.296C40.4049 91.957 42.1009 82.1418 45.1942 72.8498C57.9142 73.0223 70.3009 71.3002 82.3542 67.6834C87.3302 66.1827 92.9542 60.0589 95.8902 58.2994C112.984 48.0587 130.741 46.0031 149.162 52.1326C154.274 53.8403 160.394 58.6875 165.866 59.0498C177.618 59.8174 190.058 61.1974 201.69 60.4298C201.873 60.4169 202.05 60.3548 202.204 60.2493C202.359 60.1439 202.487 59.9982 202.576 59.8258C202.665 59.6535 202.713 59.4598 202.714 59.2625C202.716 59.0651 202.672 58.8704 202.586 58.6962C200.101 53.6879 197.08 49.2374 193.522 45.3446C192.984 44.7581 193.034 44.1918 193.674 43.6455Z" fill="#2F1C24"/>
<path d="M63.8742 59.9388C67.1742 59.4134 69.6093 57.234 69.313 55.0711C69.0167 52.9081 66.1014 51.5806 62.8014 52.1059C59.5014 52.6313 57.0663 54.8107 57.3626 56.9736C57.6588 59.1366 60.5742 60.4641 63.8742 59.9388Z" fill="#6A514E"/>
<path d="M195.785 141.211C195.753 142.246 195.423 143.255 194.793 144.239C194.644 144.474 194.535 144.454 194.465 144.178C193.745 141.375 193.513 138.494 192.673 135.855C190.572 129.225 189.065 124.709 188.153 122.305C177.913 95.266 156.249 71.1504 127.105 71.9267C95.8573 74.3072 74.0413 104.512 63.2813 133.82C63.18 134.084 62.9986 134.214 62.7373 134.208H61.7373C68.3773 97.3446 87.8493 60.8867 127.465 60.5676C170.545 60.2226 191.097 100.389 195.785 141.211Z" fill="#C77F62"/>
<path d="M195.786 141.212C197.354 137.029 198.626 132.647 202.346 132.087C207.28 131.351 210.986 133.596 213.466 138.823C215.456 145.021 214.96 151.013 211.978 156.798C211.434 157.85 210.933 158.945 210.474 160.084C205.642 163.907 200.216 164.859 194.194 162.938C193.688 162.772 193.325 162.95 193.106 163.473C188.21 175.157 181.085 184.788 171.73 192.367C163.298 199.198 152.794 203.191 142.402 206.029C138.045 207.041 133.426 207.607 128.546 207.728C127.864 202.714 127.85 197.697 128.506 192.677C134.048 192.821 139.157 190.694 143.834 186.295C147.002 182.954 149.018 178.65 149.882 173.383C150.226 171.287 149.89 168.088 147.146 168.959C144.138 168.855 140.458 168.973 136.106 169.312C128.117 169.945 119.717 169.66 110.906 168.459C111.813 167.82 112.546 167.524 113.106 167.57C118.413 168.019 123.722 168.329 129.034 168.502C129.65 168.519 130.13 168.174 130.65 167.872C130.837 167.757 130.901 167.587 130.842 167.363L130.666 166.682C130.565 166.291 130.605 165.917 130.786 165.56C131.138 164.865 131.325 164.111 131.346 163.301C131.357 163.036 131.24 162.904 130.994 162.904C126.666 162.852 122.826 163.094 122.154 157.134C122.138 156.996 122.165 156.857 122.231 156.738C122.297 156.62 122.397 156.528 122.518 156.477C122.638 156.426 122.771 156.418 122.896 156.456C123.021 156.494 123.132 156.574 123.21 156.685C125.6 160.13 128.466 160.837 131.81 158.807C137.594 155.297 130.706 151.726 128.194 150.415C127.866 150.245 127.589 149.978 127.395 149.645C127.201 149.312 127.098 148.928 127.098 148.535L127.106 71.9275C156.25 71.1512 177.914 95.2668 188.154 122.306C189.066 124.71 190.573 129.226 192.674 135.856C193.514 138.495 193.746 141.376 194.466 144.179C194.536 144.455 194.645 144.475 194.794 144.24C195.424 143.256 195.754 142.247 195.786 141.212ZM159.746 105.108C150.818 102.702 150.834 114.173 157.17 114.949C163.693 115.748 170.221 116.78 176.754 118.045C177.09 118.114 177.301 117.968 177.386 117.605C178.698 111.999 163.402 106.091 159.746 105.108ZM149.498 144.99C153.514 159.238 168.602 159.376 175.666 148.06L177.866 142.989C178.005 142.667 178.237 142.537 178.562 142.601C179.064 142.698 179.416 142.549 179.618 142.152C179.695 142.006 179.736 141.842 179.741 141.673C179.745 141.505 179.711 141.338 179.642 141.186L178.858 139.487C178.629 138.987 178.77 138.691 179.282 138.599C182.498 138.004 182.162 135.295 179.05 136.028C178.421 136.178 177.946 135.948 177.626 135.339C173.082 126.567 159.306 121.038 152.266 130.06C149.029 134.206 148.106 139.182 149.498 144.99ZM200.722 139.306C205.666 137.935 209.554 143.989 210.41 148.405C210.432 148.543 210.52 148.624 210.674 148.647C210.914 148.687 211 148.581 210.93 148.328C209.602 143.351 205.61 137.193 199.994 138.763C199.877 138.791 199.8 138.866 199.762 138.987C199.709 139.159 199.837 139.274 200.146 139.332C200.336 139.372 200.533 139.363 200.722 139.306ZM185.106 163.516C185.078 162.672 184.744 161.848 184.126 161.091C183.507 160.334 182.615 159.66 181.5 159.106C180.386 158.552 179.07 158.13 177.63 157.863C176.189 157.597 174.651 157.491 173.104 157.552C169.978 157.676 167.004 158.472 164.835 159.765C162.666 161.058 161.48 162.743 161.538 164.448C161.567 165.292 161.9 166.116 162.519 166.873C163.138 167.63 164.03 168.304 165.144 168.858C166.259 169.412 167.574 169.834 169.015 170.101C170.455 170.367 171.993 170.473 173.541 170.412C176.666 170.288 179.641 169.493 181.809 168.199C183.978 166.906 185.164 165.222 185.106 163.516Z" fill="#DB926F"/>
<path d="M127.106 71.9278L127.098 148.535C127.098 148.928 127.201 149.313 127.395 149.645C127.589 149.978 127.866 150.245 128.194 150.415C130.706 151.726 137.594 155.297 131.81 158.807C128.466 160.837 125.599 160.13 123.21 156.686C123.131 156.575 123.021 156.494 122.896 156.456C122.77 156.419 122.638 156.426 122.517 156.477C122.397 156.528 122.297 156.62 122.231 156.739C122.165 156.858 122.138 156.996 122.154 157.134C122.826 163.094 126.666 162.853 130.994 162.904C131.239 162.904 131.357 163.037 131.346 163.301C131.325 164.112 131.138 164.865 130.786 165.561C130.605 165.917 130.565 166.291 130.666 166.682L130.842 167.363C130.901 167.588 130.837 167.757 130.65 167.872C130.13 168.174 129.65 168.519 129.034 168.502C123.722 168.329 118.413 168.019 113.106 167.57C112.546 167.524 111.813 167.821 110.906 168.459L110.274 168.709C103.09 168.26 111.898 183.665 113.546 185.623C117.557 190.079 122.543 192.431 128.506 192.678C127.85 197.698 127.863 202.714 128.546 207.728C123.981 207.866 119.381 207.289 114.746 205.995C95.434 201.613 78.618 190.651 68.154 172.323C66.8953 170.115 65.3433 167.102 63.498 163.284C63.37 163.019 63.1753 162.927 62.914 163.008C57.746 164.595 51.37 164.819 47.106 160.696L44.338 157.928C43.106 154.357 42.3407 150.717 42.042 147.008C42.4633 145.249 42.4793 143.492 42.09 141.739C43.2953 135.741 46.698 132.283 52.298 131.363C56.186 130.724 59.49 137.486 60.378 140.695C60.49 141.086 60.578 141.08 60.642 140.678L61.738 134.209H62.738C62.9993 134.215 63.1806 134.085 63.282 133.821C74.042 104.513 95.858 74.3083 127.106 71.9278ZM103.362 111.68C104.298 108.429 102.522 104.073 98.722 104.927C92.602 106.29 82.098 110.283 78.682 116.372C78.5715 116.571 78.5162 116.799 78.5227 117.03C78.5292 117.262 78.5971 117.486 78.7185 117.677C78.8399 117.868 79.0095 118.017 79.2073 118.107C79.405 118.197 79.6226 118.223 79.834 118.184C85.066 117.166 90.45 116.338 95.986 115.7C99.666 115.277 102.314 115.363 103.362 111.68ZM79.626 146.681C86.034 159.351 102.258 159.963 106.41 144.688C110.114 121.22 85.714 121.418 77.018 136.132C76.9555 136.237 76.8721 136.326 76.7738 136.391C76.6756 136.457 76.5649 136.498 76.45 136.512L74.802 136.71C74.7197 136.721 74.6418 136.756 74.577 136.812C74.5122 136.867 74.4629 136.941 74.4347 137.025C74.4065 137.109 74.4005 137.2 74.4173 137.288C74.4342 137.375 74.4732 137.456 74.53 137.521L76.506 139.738C76.714 139.968 76.786 140.241 76.722 140.557C76.594 141.247 76.2127 141.721 75.578 141.98C75.5148 142.005 75.458 142.046 75.4124 142.099C75.3668 142.153 75.3336 142.217 75.3156 142.287C75.2976 142.357 75.2953 142.431 75.309 142.502C75.3226 142.573 75.3517 142.639 75.394 142.696C75.9273 143.403 76.6287 143.653 77.498 143.446C77.6246 143.417 77.7568 143.433 77.875 143.492C77.9933 143.551 78.0911 143.65 78.154 143.774L79.626 146.681ZM58.194 139.151C56.4127 138.386 54.5086 138.401 52.482 139.194C50.8286 139.838 49.626 140.66 48.874 141.661C48.8632 141.673 48.8548 141.686 48.8493 141.701C48.8437 141.716 48.8412 141.732 48.8417 141.748C48.8422 141.764 48.8459 141.78 48.8524 141.794C48.859 141.808 48.8683 141.821 48.8798 141.832C48.8914 141.843 48.905 141.851 48.9198 141.857C48.9346 141.862 48.9504 141.865 48.9662 141.864C48.982 141.863 48.9975 141.859 49.0119 141.853C49.0263 141.846 49.0392 141.837 49.05 141.825C51.29 139.404 53.97 138.582 57.09 139.358C57.2395 139.395 57.4227 139.419 57.6071 139.427C57.7916 139.435 57.9653 139.425 58.0976 139.401C58.2298 139.376 58.3121 139.337 58.3297 139.291C58.3474 139.246 58.2993 139.196 58.194 139.151ZM92.1107 163.857C92.1292 163.041 91.8645 162.227 91.3318 161.459C90.799 160.691 90.0086 159.986 89.0058 159.382C88.0029 158.779 86.8072 158.29 85.4869 157.943C84.1665 157.596 82.7475 157.398 81.3107 157.36C79.874 157.322 78.4476 157.445 77.1131 157.722C75.7787 158 74.5622 158.425 73.5332 158.975C72.5042 159.524 71.6828 160.188 71.1159 160.926C70.549 161.665 70.2478 162.465 70.2293 163.28C70.2108 164.095 70.4755 164.91 71.0083 165.678C71.541 166.446 72.3314 167.151 73.3342 167.754C74.3371 168.358 75.5329 168.847 76.8532 169.194C78.1735 169.541 79.5925 169.739 81.0293 169.777C82.4661 169.814 83.8924 169.691 85.2269 169.414C86.5613 169.137 87.7778 168.712 88.8068 168.162C89.8358 167.612 90.6572 166.949 91.2241 166.211C91.791 165.472 92.0923 164.672 92.1107 163.857Z" fill="#EEA57F"/>
<path d="M157.17 114.949C150.834 114.173 150.818 102.702 159.746 105.108C163.402 106.091 178.698 111.999 177.386 117.606C177.3 117.968 177.09 118.115 176.754 118.046C170.22 116.781 163.692 115.748 157.17 114.949Z" fill="#23121A"/>
<path d="M98.7213 104.926C102.521 104.072 104.297 108.428 103.361 111.679C102.313 115.362 99.6653 115.276 95.9853 115.699C90.4493 116.337 85.0653 117.165 79.8333 118.183C79.6218 118.222 79.4043 118.196 79.2066 118.106C79.0088 118.016 78.8392 117.867 78.7178 117.676C78.5964 117.485 78.5285 117.261 78.522 117.029C78.5155 116.798 78.5708 116.57 78.6813 116.371C82.0973 110.282 92.6013 106.289 98.7213 104.926Z" fill="#2F1C24"/>
<path d="M175.666 148.059C177.874 139.049 175.01 133.086 167.074 130.171C166.861 129.843 166.61 129.76 166.322 129.921C165.991 130.111 166.007 130.251 166.37 130.343C168.311 130.832 169.658 132.04 170.41 133.966C169.695 134.771 169.143 134.759 168.754 133.931C168.678 133.755 168.543 133.616 168.377 133.543C168.21 133.47 168.024 133.467 167.855 133.536C167.687 133.605 167.549 133.74 167.469 133.914C167.39 134.089 167.374 134.289 167.426 134.475C170.93 148.956 153.602 150.88 154.322 138.572C154.329 138.434 154.298 138.297 154.232 138.179C154.167 138.06 154.07 137.966 153.954 137.907C153.682 137.764 153.41 137.752 153.138 137.873L153.042 136.286C153.037 136.19 153.003 136.098 152.945 136.025C152.887 135.952 152.809 135.901 152.721 135.879C152.633 135.858 152.54 135.868 152.457 135.907C152.374 135.946 152.304 136.012 152.258 136.096C150.674 139.121 149.754 142.085 149.498 144.989C148.106 139.181 149.029 134.205 152.266 130.059C159.306 121.037 173.082 126.566 177.626 135.337C177.946 135.947 178.421 136.177 179.05 136.027C182.162 135.294 182.498 138.002 179.282 138.598C178.77 138.69 178.629 138.986 178.858 139.486L179.642 141.185C179.711 141.337 179.745 141.504 179.74 141.672C179.736 141.84 179.694 142.005 179.618 142.151C179.415 142.548 179.063 142.697 178.562 142.599C178.237 142.536 178.005 142.666 177.866 142.988L175.666 148.059ZM159.235 131.393C159.058 131.096 158.821 130.844 158.538 130.651C158.254 130.459 157.93 130.331 157.583 130.273C157.236 130.216 156.873 130.231 156.515 130.317C156.157 130.403 155.811 130.559 155.497 130.776C155.183 130.993 154.907 131.266 154.684 131.58C154.461 131.894 154.297 132.243 154.199 132.606C154.102 132.97 154.074 133.342 154.117 133.699C154.16 134.057 154.273 134.395 154.449 134.693C154.626 134.99 154.863 135.242 155.146 135.435C155.43 135.627 155.754 135.755 156.101 135.813C156.448 135.87 156.811 135.855 157.169 135.769C157.527 135.683 157.873 135.527 158.187 135.31C158.501 135.093 158.777 134.82 159 134.506C159.223 134.192 159.387 133.843 159.485 133.48C159.582 133.116 159.61 132.744 159.567 132.387C159.524 132.029 159.411 131.691 159.235 131.393Z" fill="#160807"/>
<path d="M106.41 144.688C106.074 141.87 105.192 139.214 103.762 136.718C103.608 136.454 103.461 136.46 103.322 136.736C103.125 137.132 103.04 137.587 103.066 138.098H102.53C102.258 138.093 102.09 138.234 102.026 138.521C101.042 143.006 99.9382 147.388 94.6182 146.775C90.0342 146.258 87.8582 141.712 88.2902 137.003L89.4262 134.295C89.5382 134.019 89.7302 133.838 90.0022 133.751C91.8742 133.153 93.8395 133.383 95.8982 134.441C102.602 139.901 103.066 127.352 96.9622 130.784C97.3142 130.227 97.3142 129.703 96.9622 129.215C96.7969 128.979 96.5782 128.844 96.3062 128.809C93.2929 128.418 90.5035 128.979 87.9382 130.491C81.0688 133.493 78.2982 138.889 79.6262 146.68L78.1542 143.774C78.0913 143.65 77.9935 143.551 77.8752 143.492C77.757 143.432 77.6248 143.416 77.4982 143.446C76.6289 143.653 75.9275 143.403 75.3942 142.696C75.3519 142.639 75.3228 142.572 75.3092 142.501C75.2955 142.43 75.2978 142.357 75.3158 142.287C75.3338 142.217 75.367 142.152 75.4126 142.099C75.4582 142.046 75.515 142.005 75.5782 141.98C76.2129 141.721 76.5942 141.246 76.7222 140.556C76.7862 140.24 76.7142 139.967 76.5062 139.737L74.5302 137.521C74.4734 137.456 74.4343 137.375 74.4175 137.287C74.4007 137.2 74.4067 137.109 74.4349 137.025C74.4631 136.941 74.5124 136.867 74.5772 136.811C74.642 136.756 74.7199 136.721 74.8022 136.71L76.4502 136.511C76.5651 136.498 76.6757 136.457 76.774 136.391C76.8723 136.325 76.9557 136.237 77.0182 136.132C85.7142 121.418 110.114 121.219 106.41 144.688Z" fill="#010100"/>
<path d="M96.9625 130.783C96.2051 131.675 95.8504 132.894 95.8984 134.44C93.8398 133.382 91.8744 133.152 90.0024 133.75C89.7304 133.837 89.5385 134.018 89.4265 134.294L88.2904 137.002C88.0984 135.317 87.3704 133.943 86.1064 132.879L87.9384 130.49C90.5038 128.978 93.2931 128.417 96.3064 128.808C96.5784 128.843 96.7971 128.978 96.9625 129.214C97.3145 129.702 97.3145 130.226 96.9625 130.783Z" fill="#3E160E"/>
<path d="M175.666 148.06C168.602 159.376 153.514 159.238 149.498 144.989C149.754 142.085 150.674 139.121 152.258 136.097C152.304 136.013 152.374 135.946 152.457 135.907C152.541 135.868 152.633 135.858 152.721 135.88C152.809 135.901 152.887 135.952 152.945 136.025C153.003 136.098 153.037 136.19 153.042 136.286L153.138 137.873C150.834 143.773 153.418 151.242 159.522 152.079C169.394 153.433 173.674 142.531 170.41 133.966C169.658 132.04 168.311 130.833 166.37 130.344C166.007 130.252 165.991 130.111 166.322 129.921C166.61 129.76 166.861 129.844 167.074 130.171C175.01 133.087 177.874 139.049 175.666 148.06Z" fill="#FEFDFE"/>
<path d="M95.8978 134.442C95.8498 132.895 96.2045 131.676 96.9619 130.785C103.066 127.352 102.602 139.901 95.8978 134.442Z" fill="#FEFDFE"/>
<path d="M158.187 135.31C159.508 134.399 159.977 132.646 159.234 131.394C158.492 130.141 156.818 129.865 155.497 130.776C154.176 131.687 153.707 133.441 154.449 134.693C155.192 135.945 156.865 136.221 158.187 135.31Z" fill="#FEFDFE"/>
<path d="M87.9374 130.49L86.1054 132.879C83.3321 137.589 83.3481 142.355 86.1534 147.18C92.2814 157.711 107.353 150.216 103.065 138.097C103.039 137.586 103.124 137.131 103.321 136.735C103.46 136.459 103.607 136.453 103.761 136.717C105.191 139.213 106.073 141.869 106.409 144.687C102.257 159.962 86.0334 159.349 79.6254 146.679C78.2974 138.888 81.0681 133.492 87.9374 130.49Z" fill="#FEFDFE"/>
<path d="M86.1052 132.879C87.3692 133.943 88.0972 135.317 88.2892 137.002C87.8572 141.711 90.0332 146.256 94.6172 146.774C99.9372 147.386 101.041 143.005 102.025 138.52C102.089 138.232 102.257 138.091 102.529 138.097H103.065C107.353 150.215 92.2812 157.71 86.1532 147.179C83.3478 142.355 83.3318 137.588 86.1052 132.879Z" fill="#894B37"/>
<path d="M170.41 133.967C173.674 142.531 169.394 153.433 159.522 152.079C153.418 151.242 150.834 143.773 153.138 137.874C153.41 137.753 153.682 137.765 153.954 137.908C154.07 137.967 154.167 138.061 154.233 138.18C154.298 138.298 154.329 138.435 154.322 138.572C153.602 150.88 170.93 148.957 167.426 134.476C167.374 134.29 167.39 134.089 167.469 133.915C167.549 133.741 167.687 133.606 167.855 133.537C168.024 133.468 168.21 133.471 168.377 133.544C168.544 133.617 168.678 133.756 168.754 133.932C169.143 134.76 169.695 134.772 170.41 133.967Z" fill="#894B37"/>
<path d="M57.0902 139.356C53.9702 138.58 51.2902 139.402 49.0502 141.823C49.0394 141.835 49.0264 141.844 49.012 141.851C48.9976 141.858 48.9821 141.861 48.9663 141.862C48.9505 141.863 48.9347 141.86 48.9199 141.855C48.9051 141.849 48.8916 141.841 48.88 141.83C48.8684 141.82 48.8592 141.807 48.8526 141.792C48.8461 141.778 48.8424 141.762 48.8419 141.746C48.8413 141.73 48.8439 141.714 48.8494 141.699C48.855 141.685 48.8634 141.671 48.8742 141.659C49.6262 140.659 50.8288 139.836 52.4822 139.192C54.5088 138.399 56.4128 138.384 58.1942 139.149C58.2995 139.194 58.3476 139.244 58.3299 139.29C58.3122 139.335 58.23 139.374 58.0977 139.399C57.9655 139.423 57.7917 139.433 57.6073 139.425C57.4229 139.417 57.2397 139.393 57.0902 139.356Z" fill="#C77F62"/>
<path d="M210.41 148.404C209.554 143.988 205.666 137.933 200.722 139.305C200.533 139.362 200.335 139.37 200.146 139.331C199.836 139.273 199.708 139.158 199.762 138.986C199.799 138.865 199.876 138.79 199.994 138.762C205.61 137.192 209.602 143.35 210.93 148.327C210.999 148.58 210.914 148.686 210.674 148.646C210.519 148.623 210.431 148.542 210.41 148.404Z" fill="#C77F62"/>
<path d="M42.0895 141.738C42.4788 143.492 42.4628 145.248 42.0415 147.008L41.9375 142.187C42.1188 142.112 42.1695 141.962 42.0895 141.738Z" fill="#A46448"/>
<path d="M81.0294 169.776C87.0718 169.935 92.0331 167.284 92.1109 163.856C92.1886 160.427 87.3532 157.518 81.3109 157.359C75.2685 157.2 70.3071 159.85 70.2294 163.279C70.1517 166.708 74.987 169.616 81.0294 169.776Z" fill="#D56860"/>
<path d="M173.54 170.412C180.048 170.154 185.226 167.067 185.105 163.516C184.984 159.965 179.611 157.295 173.102 157.552C166.594 157.809 161.416 160.897 161.537 164.448C161.658 167.999 167.032 170.669 173.54 170.412Z" fill="#D56860"/>
<path d="M44.3379 157.927L47.1059 160.695C46.7432 161.362 46.8633 161.894 47.4659 162.291C50.7059 164.439 53.4819 169.303 55.2179 172.908C61.0019 184.923 68.1779 196.213 77.1859 205.683C79.7832 208.409 82.4179 211.149 85.0899 213.903L68.3139 222.036C56.3379 202.794 48.5299 180.567 44.3379 157.927Z" fill="#2F1C24"/>
<path d="M210.475 160.083C207.681 175.24 203.281 189.831 197.275 203.855C196.241 202.463 196.329 201.138 197.539 199.879C197.722 199.688 197.847 199.445 197.899 199.18C198.547 195.653 200.531 192.867 201.387 189.857C203.027 184.095 205.123 178.17 206.403 172.322C206.606 171.408 207.035 170.284 207.691 168.95C208.246 167.817 208.681 165.755 208.995 162.765C209.017 162.547 208.934 162.481 208.747 162.567C206.15 163.798 204.217 165.709 202.947 168.303C194.579 185.397 187.131 199.258 172.763 211.445C172.139 211.974 171.843 212.834 171.875 214.024C165.539 211.62 159.001 209.918 152.259 208.918L149.907 208.288L142.403 206.028C152.795 203.191 163.299 199.197 171.731 192.366C181.086 184.788 188.211 175.157 193.107 163.473C193.326 162.949 193.689 162.771 194.195 162.938C200.217 164.858 205.643 163.907 210.475 160.083Z" fill="#23121A"/>
<path d="M47.1057 160.695C51.3697 164.817 57.7457 164.593 62.9137 163.006C63.1751 162.926 63.3697 163.018 63.4977 163.282C65.3431 167.1 66.8951 170.113 68.1537 172.321C78.6177 190.649 95.4337 201.611 114.746 205.993L109.818 207.821L104.834 208.882C98.1937 209.923 91.6124 211.596 85.0897 213.902C82.4177 211.148 79.7831 208.408 77.1857 205.682C68.1777 196.212 61.0018 184.922 55.2178 172.907C53.4818 169.302 50.7057 164.438 47.4657 162.29C46.8631 161.893 46.7431 161.362 47.1057 160.695Z" fill="#23121A"/>
<path d="M197.274 203.855C194.666 209.847 191.589 215.778 188.042 221.649C188.181 221.741 188.32 221.833 188.458 221.925L171.874 214.024C171.842 212.834 172.138 211.974 172.762 211.445C187.13 199.258 194.578 185.398 202.946 168.303C204.216 165.71 206.149 163.798 208.746 162.567C208.933 162.481 209.016 162.547 208.994 162.766C208.68 165.756 208.245 167.817 207.69 168.95C207.034 170.284 206.605 171.408 206.402 172.322C205.122 178.17 203.026 184.095 201.386 189.857C200.53 192.867 198.546 195.653 197.898 199.18C197.846 199.445 197.721 199.688 197.538 199.879C196.328 201.138 196.24 202.464 197.274 203.855Z" fill="#2F1C24"/>
<path d="M110.907 168.457C119.718 169.659 128.118 169.943 136.107 169.311C140.459 168.972 144.139 168.854 147.147 168.957C137.003 176.245 120.099 178.359 110.275 168.707L110.907 168.457Z" fill="#FEFDFE"/>
<path d="M110.274 168.708C120.098 178.359 137.002 176.246 147.146 168.958C149.89 168.087 150.226 171.286 149.882 173.382C149.018 178.649 147.002 182.953 143.834 186.294C140.106 180.734 135.322 177.655 129.482 177.057C123.572 176.453 118.239 178.713 113.482 183.836C113.3 184.031 113.282 184.244 113.426 184.474C113.714 184.928 113.754 185.311 113.546 185.621C111.898 183.663 103.09 168.259 110.274 168.708Z" fill="#A84342"/>
<path d="M143.835 186.294C139.157 190.692 134.048 192.82 128.507 192.676C122.544 192.429 117.557 190.077 113.547 185.621C113.755 185.31 113.715 184.928 113.427 184.474C113.283 184.244 113.301 184.031 113.483 183.835C118.24 178.712 123.573 176.452 129.483 177.056C135.323 177.654 140.107 180.733 143.835 186.294Z" fill="#D56860"/>
<path d="M114.746 205.994C119.381 207.288 123.981 207.866 128.546 207.728C133.426 207.607 138.045 207.041 142.402 206.029L149.906 208.289C149.432 208.455 149.229 208.843 149.298 209.453C149.336 209.798 149.2 210.002 148.89 210.065L147.21 210.402C146.933 210.459 146.669 210.557 146.418 210.695C137.77 215.551 128.258 215.559 119.178 212.903C115.818 211.92 112.698 210.226 109.818 207.823L114.746 205.994Z" fill="#C77F62"/>
<path d="M109.818 207.822C112.698 210.226 115.818 211.919 119.178 212.902C128.258 215.559 137.77 215.55 146.418 210.694C146.669 210.556 146.933 210.459 147.21 210.401L148.89 210.065C149.199 210.001 149.335 209.797 149.298 209.452C149.229 208.843 149.431 208.455 149.906 208.288L152.258 208.917C149.97 216.507 145.509 221.774 138.874 224.718C128.97 229.117 115.554 227.047 108.938 217.18C107.669 215.283 106.301 212.517 104.834 208.883L109.818 207.822Z" fill="#DB926F"/>
<path d="M104.834 208.883C106.301 212.517 107.669 215.283 108.938 217.181C115.554 227.048 128.97 229.118 138.874 224.719C145.509 221.775 149.97 216.508 152.258 208.918C159 209.918 165.538 211.62 171.874 214.024L188.458 221.924C186.608 224.73 184.072 227.165 180.85 229.23C147.29 250.706 101.106 249.749 69.8584 223.736C69.3731 223.333 68.9331 222.887 68.5384 222.399L68.3145 222.036L85.0904 213.903C91.6131 211.597 98.1944 209.924 104.834 208.883Z" fill="#41978C"/>
<path d="M188.459 221.925C188.32 221.833 188.182 221.741 188.043 221.649L194.515 225.599C194.792 225.766 194.827 225.976 194.619 226.229C160.371 268.388 97.619 268.604 63.331 226.246C63.139 226.01 63.1683 225.815 63.419 225.66L68.5389 222.399C68.9336 222.888 69.3736 223.334 69.859 223.736C101.107 249.749 147.291 250.707 180.851 229.23C184.072 227.166 186.608 224.731 188.459 221.925Z" fill="#D1DEDE"/>
</svg>
