<svg width="256" height="276" viewBox="0 0 256 276" fill="none" xmlns="http://www.w3.org/2000/svg">
<path d="M38.6623 84.3734L40.2863 90.0918C40.3042 90.1541 40.3099 90.2198 40.3028 90.2846C40.2957 90.3494 40.2761 90.412 40.2451 90.4681C40.2142 90.5242 40.1727 90.5727 40.1233 90.6104C40.0739 90.6481 40.0177 90.6742 39.9583 90.6869C30.7663 92.7655 24.6703 97.3713 32.8463 107.385C32.9799 107.55 33.0786 107.745 33.1355 107.955C33.1923 108.165 33.206 108.387 33.1756 108.603C33.1451 108.82 33.0712 109.027 32.9591 109.21C32.847 109.393 32.6993 109.547 32.5263 109.662C25.3263 114.449 29.9743 120.072 33.5183 124.928C33.7103 125.187 33.6676 125.394 33.3903 125.549C32.1343 126.239 30.4703 126.834 29.6143 127.852C27.0463 130.923 29.6543 134.174 32.2943 135.977C32.3444 136.011 32.3867 136.057 32.4182 136.111C32.4498 136.166 32.4697 136.227 32.4766 136.29C32.4835 136.354 32.4772 136.418 32.4581 136.479C32.439 136.54 32.4077 136.595 32.3663 136.641C29.9103 139.435 27.2943 141.376 28.1743 146.085C28.8223 149.553 31.9183 152.701 34.3423 155.909C34.5129 156.139 34.4916 156.346 34.2783 156.53C24.4223 165.026 36.9743 169.002 42.9583 167.993" stroke="#9F999D" stroke-width="2"/>
<path d="M42.958 167.994C47.902 173.123 53.7847 174.948 60.606 173.471C60.8833 173.413 61.0886 173.517 61.222 173.781C72.054 194.973 91.342 206.168 112.982 210.627" stroke="#D7B0A6" stroke-width="2"/>
<path d="M112.983 210.627C111.191 212.03 108.834 212.786 105.911 212.895" stroke="#CEA39D" stroke-width="2"/>
<path d="M105.91 212.896L101.878 214.035" stroke="#9B86B4" stroke-width="2"/>
<path d="M101.879 214.033C89.4947 216.379 76.1827 223.443 72.6947 237.64C72.6093 237.979 72.7213 238.209 73.0307 238.33L77.2147 239.934" stroke="#9BADC5" stroke-width="2"/>
<path d="M158.574 215.363L152.222 213.759" stroke="#8D9CBC" stroke-width="2"/>
<path d="M152.222 213.758L147.278 212.706" stroke="#9B86B4" stroke-width="2"/>
<path d="M147.278 212.705L139.814 210.851" stroke="#CEA39D" stroke-width="2"/>
<path d="M139.814 210.851C140.545 210.655 140.814 210.468 140.622 210.29" stroke="#D7B0A6" stroke-width="2"/>
<path d="M140.622 210.29C162.126 206.874 181.814 194.377 192.63 173.866C192.69 173.752 192.783 173.663 192.896 173.613C193.01 173.563 193.135 173.555 193.254 173.59C200.126 175.626 206.222 173.573 211.63 168.898" stroke="#CEA39D" stroke-width="2"/>
<path d="M211.631 168.9C216.431 170.291 220.556 169.65 224.007 166.976C228.071 163.82 224.543 160.352 222.599 157.678C222.529 157.578 222.493 157.456 222.498 157.333C222.502 157.211 222.546 157.095 222.623 157.006C227.943 150.735 232.255 146.017 224.655 138.471C224.613 138.43 224.58 138.38 224.558 138.324C224.536 138.268 224.526 138.208 224.527 138.148C224.529 138.087 224.543 138.028 224.567 137.973C224.592 137.919 224.627 137.871 224.671 137.832C230.623 132.588 227.551 129.794 222.535 126.706C222.483 126.674 222.438 126.63 222.404 126.576C222.371 126.523 222.348 126.463 222.339 126.399C222.33 126.335 222.334 126.27 222.351 126.208C222.368 126.146 222.398 126.09 222.439 126.042C226.127 121.6 230.463 115.675 222.967 111.716C222.835 111.646 222.719 111.545 222.628 111.42C222.537 111.295 222.474 111.15 222.442 110.996C222.411 110.842 222.412 110.682 222.446 110.529C222.48 110.376 222.546 110.233 222.639 110.112C229.175 101.487 225.407 95.2766 216.191 93.888C215.998 93.8594 215.815 93.7836 215.654 93.6663C215.494 93.5491 215.36 93.3936 215.264 93.2118C215.168 93.03 215.113 92.8268 215.101 92.618C215.09 92.4092 215.123 92.2004 215.199 92.0077C216.519 88.6009 219.239 82.71 216.991 79.4756C214.479 75.8531 209.439 77.7334 206.135 78.2509C206.003 78.2715 205.868 78.2488 205.748 78.1857C205.628 78.1226 205.529 78.0221 205.463 77.8972C205.063 77.1612 204.916 76.2671 205.023 75.2149C205.38 71.6039 205.3 67.8261 204.783 63.8816C203.743 56.0156 198.399 58.9395 193.639 59.6553C193.34 59.7013 193.135 59.5749 193.023 59.2759L191.479 55.2135" stroke="#969197" stroke-width="2"/>
<path d="M191.478 55.2134C191.227 53.5517 190.587 51.0504 189.558 47.7097C187.302 40.3784 182.878 42.9573 178.158 44.8548C177.914 44.9529 177.643 44.9458 177.404 44.835C177.164 44.7242 176.973 44.5182 176.87 44.2597C175.814 41.6434 174.705 39.0387 173.542 36.4454C169.366 27.1649 165.222 30.6926 159.726 35.7986C159.507 35.9998 159.286 36.0027 159.062 35.8072L158.334 35.1517" stroke="#9F999D" stroke-width="2"/>
<path d="M158.334 35.1514C157.331 31.9141 155.897 28.996 154.03 26.397C149.374 19.9196 143.278 27.4234 140.334 31.2529C140.155 31.4833 139.926 31.662 139.667 31.7727C139.408 31.8833 139.127 31.9224 138.851 31.8864C138.574 31.8504 138.31 31.7405 138.083 31.5666C137.856 31.3927 137.673 31.1603 137.55 30.8906C135.43 26.1814 132.382 17.4443 126.078 20.4544C122.47 22.1794 118.95 27.4493 116.95 31.3305C116.902 31.4227 116.836 31.5021 116.756 31.5631C116.676 31.6241 116.584 31.6651 116.486 31.6833C116.389 31.7014 116.289 31.6962 116.194 31.668C116.098 31.6398 116.01 31.5894 115.934 31.5202C108.086 24.2666 101.622 17.6599 95.3821 32.3742C95.302 32.5602 95.1861 32.7256 95.042 32.8593C94.898 32.993 94.7293 33.0918 94.5472 33.1491C94.3652 33.2063 94.1741 33.2207 93.9869 33.1911C93.7997 33.1616 93.6207 33.0888 93.4621 32.9779C89.2701 30.0281 84.1501 26.5177 81.0061 33.6247C79.7261 36.5227 79.0754 39.5645 79.0541 42.75C79.0527 42.9321 79.0108 43.1112 78.9319 43.2723C78.853 43.4333 78.7394 43.5716 78.6007 43.6755C78.462 43.7794 78.3022 43.846 78.1347 43.8696C77.9672 43.8931 77.7969 43.873 77.6381 43.8109C74.2621 42.5171 69.8221 39.9986 67.1421 43.7419C65.3501 46.2431 64.4861 53.307 63.3261 57.0157C63.2604 57.2286 63.155 57.4246 63.0162 57.5918C62.8774 57.7589 62.7083 57.8935 62.5193 57.9873C62.3303 58.0811 62.1255 58.132 61.9175 58.137C61.7095 58.142 61.5028 58.1009 61.3101 58.0163C59.8808 57.378 58.2674 56.8059 56.4701 56.2999C48.4781 54.0401 49.9101 70.2637 49.8541 74.5504C49.8536 74.6825 49.8256 74.8128 49.772 74.9317C49.7185 75.0505 49.6408 75.1548 49.5447 75.2368C49.4487 75.3189 49.3367 75.3765 49.2171 75.4055C49.0976 75.4345 48.9735 75.434 48.8541 75.4042C46.4541 74.8177 43.3421 73.524 41.1661 74.0674C36.4461 75.2662 37.2541 80.9329 38.6621 84.3743" stroke="#A59EA1" stroke-width="2"/>
<path d="M158.334 35.152C157.449 35.7615 156.705 36.5636 156.102 37.5583C155.953 37.8056 155.75 37.9867 155.494 38.1017C152.886 39.3092 150.331 40.6432 147.83 42.1037C147.578 42.251 147.361 42.4609 147.198 42.7161C146.302 44.1479 145.009 44.8896 143.318 44.9413C143.169 44.9438 143.021 44.9831 142.887 45.0563C142.752 45.1294 142.635 45.2346 142.542 45.364C141.091 47.3708 139.793 48.4546 138.646 48.6156C134.926 49.1417 133.382 52.7728 129.574 53.8423C127.313 54.4748 125.097 55.2683 122.926 56.2228C122.19 56.5506 121.678 57.301 120.582 57.37C119.542 57.4332 118.939 57.4879 118.774 57.5339C113.918 58.7155 111.062 56.5679 106.758 56.1366C100.494 55.507 93.5901 59.3882 87.7341 61.6739C85.3181 62.6226 83.1581 64.753 81.2541 68.065C81.1208 68.295 80.9314 68.3985 80.6861 68.3755C77.4381 68.0736 77.9581 72.3602 74.2221 72.4724C73.9438 72.4838 73.6741 72.5698 73.4381 72.7225C70.5581 74.5567 67.9821 76.7763 65.7101 79.381C63.6381 81.7529 61.2621 82.5722 58.6301 83.797C58.3741 83.9177 58.1554 84.096 57.9741 84.3317C57.3661 85.1482 56.5687 85.5939 55.5821 85.6686C55.3047 85.6916 55.0808 85.821 54.9101 86.0567C54.1261 87.1262 53.0914 87.6064 51.8061 87.4971C51.5661 87.4741 51.3688 87.5632 51.2141 87.7645C50.3021 88.926 49.1874 89.179 47.8701 88.5235C47.7492 88.4624 47.6159 88.4344 47.482 88.4419C47.3481 88.4495 47.2177 88.4922 47.1021 88.5666C46.6381 88.8713 46.2221 88.8742 45.8541 88.5752C45.6461 88.4085 45.4141 88.3308 45.1581 88.3423C44.5341 88.3768 43.9608 88.5867 43.4381 88.972C43.2086 89.1409 42.9361 89.2338 42.6541 89.2394C40.3261 89.2652 40.7821 87.2125 39.9581 85.9532C39.5954 85.3955 39.1634 84.8694 38.6621 84.3749" stroke="#453840" stroke-width="2"/>
<path d="M191.478 55.2135C190.822 58.56 191.276 61.5845 192.838 64.287C192.994 64.5542 193.1 64.8521 193.148 65.1636C193.197 65.4751 193.187 65.7938 193.12 66.1012C193.053 66.4087 192.93 66.6987 192.758 66.9544C192.586 67.21 192.368 67.4262 192.118 67.5904L188.422 70.0226C188.322 70.0891 188.239 70.1819 188.181 70.2921C188.124 70.4024 188.094 70.5264 188.094 70.6522V70.8678C188.094 71.1841 187.95 71.3365 187.662 71.325C183.782 71.1956 188.198 78.4838 189.638 81.0368C189.67 81.0916 189.685 81.1564 189.679 81.221C189.673 81.2856 189.648 81.3463 189.606 81.3937C189.565 81.441 189.511 81.4723 189.451 81.4826C189.392 81.4929 189.331 81.4817 189.278 81.4507L188.566 81.0626C188.516 81.0359 188.46 81.0232 188.404 81.0258C188.348 81.0284 188.293 81.0461 188.246 81.0772C188.199 81.1084 188.16 81.152 188.133 81.2038C188.107 81.2556 188.093 81.3139 188.094 81.3731V86.2031C188.094 86.3462 188.062 86.4871 188.001 86.6133C187.94 86.7396 187.851 86.8475 187.742 86.9276C187.337 87.2209 187.132 87.609 187.126 88.092C187.126 88.391 186.996 88.5951 186.734 88.7044C185.31 89.3081 183.614 89.3081 183.334 91.404C183.046 93.5085 178.79 96.0874 181.566 98.5024C181.63 98.5582 181.681 98.6286 181.716 98.7084C181.751 98.7882 181.77 98.8754 181.77 98.9638C181.77 99.0522 181.751 99.1395 181.716 99.2193C181.681 99.2991 181.63 99.3695 181.566 99.4253L179.622 101.124C179.572 101.169 179.511 101.198 179.446 101.208C179.381 101.218 179.315 101.207 179.255 101.179C179.195 101.15 179.144 101.104 179.107 101.046C179.07 100.987 179.049 100.919 179.046 100.848C178.977 99.5489 178.278 98.8014 176.95 98.6059" stroke="#362C36" stroke-width="2"/>
<path d="M176.951 98.6054C176.161 97.3404 174.156 96.935 170.935 97.3892C170.636 97.4295 170.364 97.3548 170.119 97.165L169.143 96.4147" stroke="#6E3D3C" stroke-width="2"/>
<path d="M169.141 96.4155C167.013 93.667 165.237 90.6741 163.813 87.4368C163.762 87.3195 163.688 87.2148 163.598 87.1291C163.507 87.0433 163.402 86.9783 163.287 86.9379C163.173 86.8976 163.052 86.8828 162.932 86.8944C162.812 86.906 162.695 86.9439 162.589 87.0056C160.949 87.9716 158.205 89.4551 156.325 89.1618C153.485 88.7133 149.645 80.7352 148.133 77.9838C148.031 77.7975 147.896 77.6346 147.736 77.5046C147.576 77.3746 147.394 77.2799 147.2 77.2262C147.007 77.1724 146.806 77.1607 146.609 77.1915C146.412 77.2224 146.223 77.2953 146.053 77.4059C142.373 79.7692 137.197 83.1847 133.373 78.6135C132.045 77.0178 129.909 72.6795 127.525 73.9128C123.584 75.9426 119.877 76.2617 116.405 74.8702C115.645 74.5683 114.925 73.6196 114.045 73.2832C113.922 73.2363 113.79 73.226 113.662 73.2533C113.534 73.2806 113.415 73.3446 113.317 73.4385C109.957 76.6297 107.877 78.5013 103.157 78.7946C102.785 78.8157 102.423 78.9313 102.099 79.1321C101.775 79.3329 101.499 79.6131 101.293 79.9503C99.2214 83.3227 96.7013 82.6758 93.4853 82.7707C93.3545 82.7734 93.2267 82.8141 93.1155 82.8884C93.0043 82.9628 92.9137 83.0681 92.8534 83.1933C90.3494 88.3166 88.4373 93.2501 82.1253 92.1633C81.842 92.1151 81.552 92.1771 81.3073 92.3383C81.0625 92.4995 80.8789 92.7493 80.7894 93.0431C78.3014 101.245 76.9893 101.651 69.7253 104.394C69.6041 104.437 69.4924 104.508 69.3974 104.602C69.3024 104.695 69.226 104.809 69.1733 104.937C68.2347 107.156 67.5467 109.471 67.1094 111.88C66.5654 114.907 63.4933 116.124 61.4213 117.478C56.1893 120.893 54.9814 138.842 54.9894 144.25C54.9894 144.853 54.8827 144.876 54.6693 144.319C53.4427 141.133 52.1707 139.101 50.8534 138.221C45.6294 134.736 39.6294 140.688 38.2134 145.656C36.0694 153.182 37.2294 160.125 41.6934 166.485C41.8399 166.694 42.0364 166.855 42.2614 166.951C43.2054 167.347 43.4374 167.695 42.9574 167.994" stroke="#784B45" stroke-width="2"/>
<path d="M169.142 96.4147C169.195 98.1454 168.534 99.6893 167.158 101.046C167.066 101.139 166.991 101.25 166.94 101.374C166.888 101.498 166.86 101.632 166.857 101.768C166.854 101.904 166.876 102.039 166.922 102.165C166.968 102.292 167.038 102.407 167.126 102.504L173.174 109.206" stroke="#A75545" stroke-width="2"/>
<path d="M173.175 109.206C173.186 109.775 172.876 110.103 172.247 110.189" stroke="#AA5B4A" stroke-width="2"/>
<path d="M172.246 110.19C167.342 106.265 151.358 99.5463 147.694 108.603C146.59 111.345 147.382 114.744 149.838 116.348C153.086 118.478 157.046 116.124 160.574 116.132C164.937 116.149 169.022 117.512 172.83 120.22" stroke="#7E5049" stroke-width="2"/>
<path d="M172.83 120.22C172.606 120.421 172.328 120.421 171.998 120.22C171.816 120.111 171.718 120.171 171.702 120.401C171.696 120.476 171.694 120.55 171.694 120.625C171.694 120.674 171.684 120.722 171.664 120.765C171.645 120.809 171.617 120.847 171.582 120.876C171.547 120.905 171.506 120.925 171.463 120.934C171.42 120.943 171.376 120.941 171.334 120.927C171.248 120.904 171.174 120.87 171.11 120.824C170.896 120.691 170.739 120.746 170.638 120.988C169.63 123.472 168.55 129.483 166.766 131.044" stroke="#AA5B4A" stroke-width="2"/>
<path d="M166.765 131.045C147.757 127.742 144.181 162.475 162.365 165.235" stroke="#D7B0A6" stroke-width="2"/>
<path d="M162.366 165.233C161.998 166.124 161.987 167.001 162.334 167.863C162.435 168.122 162.393 168.352 162.206 168.553C160.998 169.856 159.31 171.382 158.67 172.892C156.278 178.584 163.398 182.586 167.59 182.767C170.993 182.905 174.414 182.21 177.854 180.68" stroke="#AA5B4A" stroke-width="2"/>
<path d="M177.854 180.68C173.993 190.881 167.323 198.255 157.846 202.803C157.057 203.183 156.177 203.951 155.206 205.106C155.057 205.285 154.875 205.411 154.662 205.486L140.622 210.29" stroke="#A75545" stroke-width="2"/>
<path d="M139.814 210.851C128.238 211.748 122.07 211.222 112.982 210.627" stroke="#A75545" stroke-width="2"/>
<path d="M211.63 168.898C216.468 163.459 218.582 157.007 217.974 149.544C217.542 144.17 214.774 138.633 209.67 137.262C206.118 136.296 203.11 137.702 201.294 141.083C201.054 141.525 200.894 141.494 200.814 140.988C199.63 133.697 197.972 126.521 195.838 119.46C195.743 119.148 195.546 118.884 195.285 118.716C195.023 118.548 194.714 118.488 194.414 118.546C187.158 119.934 191.046 106.798 184.518 106.557C179.126 106.35 178.878 103.297 176.95 98.6046" stroke="#653636" stroke-width="2"/>
<path d="M177.855 180.681L180.799 165.527C180.823 165.395 180.88 165.272 180.965 165.171C181.049 165.071 181.158 164.997 181.279 164.958C184.607 163.862 188.031 164.777 191.159 165.613C191.344 165.663 191.537 165.671 191.726 165.638C191.915 165.605 192.095 165.531 192.257 165.42C192.418 165.31 192.557 165.165 192.666 164.995C192.774 164.826 192.849 164.634 192.887 164.432C194.721 154.133 194.873 144.22 193.343 134.693C192.583 129.949 190.287 128.215 187.519 125.11C184.247 121.427 182.359 117.02 178.527 113.466C177.095 112.147 174.807 111.198 173.175 109.206" stroke="#A14E41" stroke-width="2"/>
<path d="M162.365 165.234C179.933 162.733 183.797 138.548 166.765 131.044" stroke="#D1A9A2" stroke-width="2"/>
<path d="M172.247 110.189C176.543 114.166 181.031 119.013 182.167 125.214C182.396 126.462 182.004 127.109 180.991 127.155C180.681 127.166 180.38 127.055 180.143 126.844L172.831 120.22" stroke="#784945" stroke-width="2"/>
<path d="M147.279 212.706C145.415 228.032 124.567 227.247 114.975 223.634C109.847 221.71 107.119 218.441 105.911 212.895" stroke="#6B2B53" stroke-width="2"/>
<path d="M152.222 213.759C153.321 216.898 153.153 220.112 151.718 223.401C150.972 225.109 149.534 226.38 147.406 227.214" stroke="#2A2472" stroke-width="2"/>
<path d="M147.406 227.212C134.718 228.609 124.31 229.877 112.782 226.048C106.07 223.814 103.542 222.003 101.878 214.033" stroke="#38357B" stroke-width="2"/>
<path d="M165.054 243.911C136.55 252.812 104.902 250.57 77.2139 239.935" stroke="#839BBA" stroke-width="2"/>
<path d="M158.575 215.362C168.735 220.667 175.359 224.453 179.391 236.873C179.524 237.287 179.499 237.741 179.322 238.135C179.146 238.53 178.831 238.833 178.447 238.977L165.055 243.911" stroke="#758BB1" stroke-width="2"/>
<path d="M165.054 243.911C165.593 243.06 166.47 242.459 167.686 242.109C168.001 242.022 168.044 241.853 167.814 241.6C166.598 240.28 166.806 238.365 166.414 237.08C163.486 227.412 155.19 227.843 147.406 227.213" stroke="#294B82" stroke-width="2"/>
<path d="M95.6061 116.321C100.03 116.459 104.702 119.34 108.006 115.079C110.558 111.776 109.478 106.998 105.91 105.118C104.689 104.474 103.011 104.175 100.878 104.221C89.0861 104.505 75.1981 112.406 73.2781 126.439C73.2504 126.65 73.2834 126.866 73.3725 127.058C73.4616 127.249 73.6027 127.406 73.7764 127.508C73.9502 127.609 74.1484 127.651 74.344 127.626C74.5397 127.601 74.7233 127.512 74.8701 127.37C80.7741 121.721 86.8381 116.045 95.6061 116.321Z" stroke="#7E5049" stroke-width="2"/>
<path d="M87.3665 163.699C107.558 172.54 110.102 133.132 93.1105 130.829C75.3745 128.423 71.1425 156.609 87.3665 163.699Z" stroke="#D7B0A6" stroke-width="2"/>
<path d="M47.9178 164.043C51.5258 167.251 57.4217 168.235 56.1817 160.627C55.4937 156.418 52.8698 145.327 49.1178 143.222C47.3684 142.233 45.7417 142.762 44.2377 144.809C39.8297 150.803 42.8298 159.506 47.9178 164.043Z" stroke="#A75545" stroke-width="2"/>
<path d="M124.718 171.013L124.694 168.632C124.691 168.476 124.647 168.323 124.568 168.191C124.489 168.059 124.378 167.954 124.247 167.888C124.116 167.821 123.971 167.796 123.827 167.815C123.684 167.833 123.549 167.896 123.438 167.994C122.51 168.805 122.352 169.716 122.966 170.728C123.12 170.987 123.339 171.125 123.622 171.142L124.454 171.185" stroke="#BF6E4E" stroke-width="2"/>
<path d="M124.455 171.184C123.815 172.242 123.661 173.421 123.991 174.721C124.055 174.962 124.205 175.103 124.439 175.143C126.813 175.54 128.658 175.034 129.975 173.625C134.615 168.651 134.479 163.844 129.567 159.204C128.938 158.606 128.269 158.465 127.559 158.782C127.504 158.805 127.455 158.844 127.417 158.894C127.379 158.944 127.355 159.003 127.345 159.067C127.335 159.13 127.341 159.196 127.362 159.256C127.382 159.316 127.418 159.37 127.463 159.411C131.663 163.146 128.887 169.019 124.719 171.012" stroke="#AA5B4A" stroke-width="2"/>
<path d="M124.455 171.185C124.583 171.174 124.671 171.116 124.719 171.013" stroke="#B9674A" stroke-width="2"/>
<path d="M72.0452 182.207C77.5706 186.117 83.2773 186.715 89.1653 184.001C93.3653 182.06 95.1652 177.48 92.2452 173.219C88.0852 167.13 78.4132 163.827 72.0532 167.458C66.4052 170.675 67.0452 178.67 72.0452 182.207Z" stroke="#AA5B4A" stroke-width="2"/>
<path d="M108.447 178.532C107.215 178.343 106.575 179.99 106.951 181.154C108.319 185.45 115.151 189.546 118.791 190.771C128.415 194.014 142.567 192.376 148.047 181.577C148.175 181.33 148.202 181.071 148.127 180.801C147.828 179.708 146.887 179.148 145.303 179.119" stroke="#623B34" stroke-width="2"/>
<path d="M145.303 179.12C132.919 180.094 123.199 181.181 111.111 176.687C110.061 176.296 109.173 176.912 108.447 178.533" stroke="#D7B0A6" stroke-width="2"/>
<path d="M145.303 179.121C137.599 192.205 116.583 189.445 108.447 178.534" stroke="#89898C" stroke-width="2"/>
<path d="M92.1607 164.538C93.5103 164.657 94.8757 164.397 96.1788 163.771C97.4818 163.145 98.6971 162.165 99.7553 160.889C100.813 159.613 101.694 158.064 102.346 156.332C102.998 154.599 103.409 152.717 103.556 150.792C103.703 148.868 103.582 146.938 103.201 145.114C102.82 143.29 102.186 141.608 101.336 140.162C100.485 138.717 99.4347 137.537 98.2439 136.689C97.0532 135.842 95.7457 135.345 94.396 135.225C93.0464 135.106 91.6811 135.366 90.378 135.992C89.075 136.618 87.8596 137.597 86.8015 138.874C85.7434 140.15 84.8631 141.699 84.211 143.431C83.559 145.163 83.1478 147.046 83.001 148.97C82.8543 150.895 82.9747 152.824 83.3556 154.648C83.7365 156.472 84.3703 158.155 85.2209 159.601C86.0715 161.046 87.1221 162.226 88.3128 163.073C89.5035 163.92 90.8111 164.418 92.1607 164.538Z" stroke="#838385" stroke-width="2"/>
<path d="M162.552 164.501C165.318 164.329 167.889 162.618 169.698 159.743C171.506 156.868 172.406 153.065 172.197 149.172C171.989 145.278 170.691 141.612 168.587 138.98C166.484 136.349 163.748 134.967 160.982 135.139C158.215 135.311 155.645 137.023 153.836 139.897C152.027 142.772 151.128 146.575 151.336 150.468C151.544 154.362 152.843 158.028 154.946 160.66C157.05 163.291 159.786 164.673 162.552 164.501Z" stroke="#838385" stroke-width="2"/>
<path d="M163.733 147.13C163.729 146.888 163.68 146.649 163.589 146.427C163.499 146.205 163.369 146.004 163.207 145.836C163.045 145.669 162.853 145.537 162.644 145.449C162.434 145.361 162.211 145.318 161.986 145.323L161.554 145.333C161.329 145.338 161.108 145.391 160.902 145.488C160.696 145.586 160.51 145.726 160.354 145.901C160.199 146.076 160.077 146.282 159.995 146.508C159.913 146.734 159.874 146.975 159.878 147.217L159.943 150.546C159.948 150.788 159.997 151.027 160.087 151.249C160.177 151.471 160.307 151.671 160.47 151.839C160.632 152.007 160.823 152.139 161.033 152.227C161.242 152.315 161.466 152.357 161.69 152.352L162.122 152.343C162.347 152.337 162.569 152.285 162.775 152.187C162.981 152.09 163.167 151.95 163.322 151.775C163.478 151.6 163.6 151.393 163.682 151.168C163.763 150.942 163.803 150.701 163.798 150.458L163.733 147.13Z" stroke="#838385" stroke-width="2"/>
<path d="M95.2421 146.908C95.2322 146.469 95.0608 146.052 94.7658 145.749C94.4708 145.446 94.0763 145.282 93.6691 145.293L92.9653 145.312C92.558 145.322 92.1714 145.507 91.8904 145.825C91.6095 146.143 91.4573 146.568 91.4673 147.007L91.5529 150.784C91.5628 151.223 91.7341 151.64 92.0291 151.943C92.3241 152.246 92.7187 152.41 93.1259 152.399L93.8297 152.381C94.2369 152.37 94.6236 152.185 94.9045 151.867C95.1854 151.549 95.3376 151.124 95.3277 150.685L95.2421 146.908Z" stroke="#838385" stroke-width="2"/>
<path d="M158.334 35.1514C157.449 35.7609 156.705 36.563 156.102 37.5577C155.953 37.805 155.75 37.9861 155.494 38.1011C152.886 39.3086 150.331 40.6426 147.83 42.1031C147.578 42.2504 147.361 42.4603 147.198 42.7155C146.302 44.1473 145.009 44.889 143.318 44.9407C143.169 44.9432 143.021 44.9825 142.887 45.0557C142.752 45.1288 142.635 45.234 142.542 45.3634C141.091 47.3702 139.793 48.454 138.646 48.615C134.926 49.1411 133.382 52.7722 129.574 53.8417C127.313 54.4742 125.097 55.2677 122.926 56.2222C122.19 56.55 121.678 57.3004 120.582 57.3694C119.542 57.4326 118.939 57.4873 118.774 57.5333C113.918 58.7149 111.062 56.5673 106.758 56.136C100.494 55.5064 93.5901 59.3876 87.7341 61.6733C85.3181 62.622 83.1581 64.7524 81.2541 68.0644C81.1208 68.2944 80.9314 68.3979 80.6861 68.3749C77.4381 68.073 77.9581 72.3596 74.2221 72.4718C73.9438 72.4832 73.6741 72.5692 73.4381 72.7219C70.5581 74.5561 67.9821 76.7757 65.7101 79.3804C63.6381 81.7523 61.2621 82.5717 58.6301 83.7964C58.3741 83.9172 58.1554 84.0954 57.9741 84.3311C57.3661 85.1477 56.5687 85.5933 55.5821 85.668C55.3047 85.691 55.0808 85.8204 54.9101 86.0561C54.1261 87.1256 53.0914 87.6058 51.8061 87.4965C51.5661 87.4735 51.3688 87.5626 51.2141 87.7639C50.3021 88.9254 49.1874 89.1784 47.8701 88.5229C47.7491 88.4618 47.6159 88.4338 47.482 88.4413C47.3481 88.4489 47.2177 88.4916 47.1021 88.566C46.6381 88.8708 46.2221 88.8736 45.8541 88.5746C45.6461 88.4079 45.4141 88.3302 45.1581 88.3417C44.5341 88.3762 43.9607 88.5862 43.4381 88.9714C43.2086 89.1403 42.9361 89.2332 42.6541 89.2388C40.3261 89.2646 40.7821 87.2119 39.9581 85.9527C39.5954 85.3949 39.1634 84.8688 38.6621 84.3743C37.2541 80.9329 36.4461 75.2663 41.1661 74.0674C43.3421 73.524 46.4541 74.8177 48.8541 75.4042C48.9735 75.434 49.0976 75.4345 49.2171 75.4055C49.3367 75.3765 49.4487 75.3189 49.5447 75.2368C49.6408 75.1548 49.7185 75.0505 49.772 74.9317C49.8256 74.8128 49.8536 74.6825 49.8541 74.5504C49.9101 70.2638 48.4781 54.0401 56.4701 56.2999C58.2674 56.8059 59.8808 57.378 61.3101 58.0163C61.5028 58.1009 61.7095 58.142 61.9175 58.137C62.1255 58.132 62.3303 58.0811 62.5193 57.9873C62.7083 57.8935 62.8774 57.7589 63.0162 57.5918C63.155 57.4246 63.2604 57.2286 63.3261 57.0157C64.4861 53.307 65.3501 46.2431 67.1421 43.7419C69.8221 39.9986 74.2621 42.5171 77.6381 43.8109C77.7969 43.873 77.9672 43.8931 78.1347 43.8696C78.3022 43.846 78.462 43.7794 78.6007 43.6755C78.7394 43.5716 78.853 43.4333 78.9319 43.2723C79.0108 43.1112 79.0527 42.9321 79.0541 42.75C79.0754 39.5645 79.7261 36.5227 81.0061 33.6247C84.1501 26.5177 89.2701 30.0281 93.4621 32.9779C93.6207 33.0888 93.7997 33.1616 93.9869 33.1911C94.1741 33.2207 94.3652 33.2063 94.5472 33.1491C94.7293 33.0918 94.898 32.993 95.042 32.8593C95.1861 32.7256 95.302 32.5602 95.3821 32.3742C101.622 17.6599 108.086 24.2666 115.934 31.5202C116.01 31.5894 116.098 31.6398 116.194 31.668C116.289 31.6962 116.389 31.7014 116.486 31.6833C116.584 31.6651 116.676 31.6241 116.756 31.5631C116.836 31.5021 116.902 31.4227 116.95 31.3305C118.95 27.4493 122.47 22.1794 126.078 20.4544C132.382 17.4443 135.43 26.1814 137.55 30.8906C137.673 31.1603 137.856 31.3927 138.083 31.5666C138.31 31.7405 138.574 31.8504 138.851 31.8864C139.127 31.9224 139.408 31.8833 139.667 31.7727C139.926 31.662 140.155 31.4833 140.334 31.2529C143.278 27.4234 149.374 19.9196 154.03 26.397C155.897 28.996 157.331 31.9141 158.334 35.1514Z" fill="#4B3D44"/>
<path d="M191.478 55.2134C190.822 58.5599 191.276 61.5845 192.838 64.287C192.995 64.5541 193.1 64.8521 193.148 65.1636C193.197 65.475 193.187 65.7937 193.12 66.1012C193.053 66.4086 192.93 66.6987 192.758 66.9543C192.586 67.21 192.369 67.4261 192.118 67.5903L188.422 70.0226C188.322 70.089 188.239 70.1818 188.181 70.2921C188.124 70.4023 188.094 70.5263 188.094 70.6522V70.8678C188.094 71.184 187.95 71.3364 187.662 71.3249C183.782 71.1956 188.198 78.4837 189.638 81.0367C189.67 81.0916 189.685 81.1564 189.679 81.2209C189.673 81.2855 189.648 81.3463 189.607 81.3936C189.565 81.4409 189.511 81.4722 189.451 81.4825C189.392 81.4929 189.331 81.4817 189.278 81.4507L188.566 81.0625C188.516 81.0358 188.46 81.0232 188.404 81.0257C188.348 81.0283 188.294 81.046 188.246 81.0772C188.199 81.1083 188.16 81.1519 188.133 81.2037C188.107 81.2555 188.093 81.3139 188.094 81.3731V86.2031C188.094 86.3462 188.062 86.487 188.001 86.6133C187.94 86.7395 187.851 86.8474 187.742 86.9276C187.337 87.2208 187.132 87.6089 187.126 88.0919C187.126 88.3909 186.996 88.5951 186.734 88.7043C185.31 89.3081 183.614 89.3081 183.334 91.404C183.046 93.5085 178.79 96.0873 181.566 98.5023C181.63 98.5581 181.681 98.6285 181.716 98.7083C181.751 98.7881 181.77 98.8754 181.77 98.9637C181.77 99.0521 181.751 99.1394 181.716 99.2192C181.681 99.299 181.63 99.3694 181.566 99.4252L179.622 101.124C179.572 101.169 179.511 101.198 179.446 101.208C179.381 101.217 179.315 101.207 179.255 101.179C179.195 101.15 179.144 101.104 179.107 101.045C179.07 100.987 179.049 100.919 179.046 100.848C178.977 99.5488 178.278 98.8013 176.95 98.6058C176.161 97.3408 174.156 96.9354 170.934 97.3897C170.636 97.4299 170.364 97.3552 170.118 97.1655L169.142 96.4151C167.014 93.6666 165.238 90.6737 163.814 87.4364C163.763 87.3191 163.689 87.2145 163.599 87.1287C163.508 87.0429 163.403 86.9779 163.288 86.9375C163.174 86.8972 163.053 86.8824 162.933 86.894C162.813 86.9056 162.696 86.9435 162.59 87.0052C160.95 87.9712 158.206 89.4547 156.326 89.1614C153.486 88.7129 149.646 80.7348 148.134 77.9834C148.032 77.7971 147.897 77.6342 147.737 77.5042C147.577 77.3742 147.395 77.2795 147.201 77.2258C147.008 77.172 146.807 77.1603 146.61 77.1911C146.413 77.222 146.224 77.2949 146.054 77.4056C142.374 79.7688 137.198 83.1843 133.374 78.6131C132.046 77.0174 129.91 72.6791 127.526 73.9124C123.585 75.9422 119.878 76.2613 116.406 74.8698C115.646 74.5679 114.926 73.6192 114.046 73.2828C113.923 73.2359 113.791 73.2256 113.663 73.2529C113.534 73.2802 113.416 73.3442 113.318 73.4381C109.958 76.6293 107.878 78.5009 103.158 78.7942C102.786 78.8153 102.424 78.931 102.1 79.1317C101.776 79.3325 101.5 79.6127 101.294 79.9499C99.2223 83.3223 96.7023 82.6755 93.4863 82.7703C93.3554 82.773 93.2277 82.8137 93.1164 82.888C93.0052 82.9624 92.9147 83.0678 92.8543 83.1929C90.3503 88.3162 88.4383 93.2497 82.1263 92.1629C81.8429 92.1147 81.553 92.1767 81.3082 92.3379C81.0634 92.4991 80.8798 92.7489 80.7903 93.0427C78.3023 101.245 76.9903 101.65 69.7263 104.393C69.605 104.437 69.4934 104.508 69.3983 104.601C69.3033 104.695 69.227 104.809 69.1743 104.937C68.2356 107.156 67.5476 109.47 67.1103 111.88C66.5663 114.907 63.4943 116.123 61.4223 117.477C56.1903 120.893 54.9823 138.841 54.9903 144.249C54.9903 144.853 54.8836 144.876 54.6702 144.318C53.4436 141.133 52.1716 139.1 50.8543 138.22C45.6303 134.736 39.6303 140.687 38.2143 145.655C36.0703 153.182 37.2303 160.125 41.6943 166.485C41.8408 166.693 42.0373 166.854 42.2623 166.95C43.2063 167.347 43.4383 167.695 42.9583 167.994C36.9743 169.003 24.4223 165.027 34.2783 156.531C34.4916 156.347 34.5129 156.14 34.3423 155.91C31.9183 152.702 28.8223 149.554 28.1743 146.086C27.2943 141.377 29.9103 139.437 32.3663 136.642C32.4077 136.596 32.439 136.541 32.4581 136.48C32.4772 136.42 32.4835 136.355 32.4766 136.292C32.4697 136.228 32.4498 136.167 32.4182 136.113C32.3867 136.058 32.3444 136.012 32.2943 135.978C29.6543 134.175 27.0463 130.924 29.6143 127.853C30.4703 126.835 32.1343 126.24 33.3903 125.55C33.6676 125.395 33.7103 125.188 33.5183 124.929C29.9743 120.073 25.3263 114.45 32.5263 109.663C32.6993 109.548 32.847 109.394 32.9591 109.211C33.0712 109.028 33.1451 108.821 33.1756 108.604C33.206 108.388 33.1923 108.167 33.1355 107.956C33.0786 107.746 32.9799 107.551 32.8463 107.386C24.6703 97.3724 30.7663 92.7667 39.9583 90.6881C40.0177 90.6753 40.0739 90.6492 40.1233 90.6115C40.1727 90.5738 40.2142 90.5253 40.2451 90.4692C40.2761 90.4131 40.2957 90.3506 40.3028 90.2858C40.3099 90.221 40.3042 90.1553 40.2863 90.0929L38.6623 84.3746C39.1636 84.8691 39.5956 85.3952 39.9583 85.953C40.7823 87.2122 40.3263 89.265 42.6543 89.2391C42.9363 89.2335 43.2088 89.1406 43.4383 88.9717C43.9609 88.5865 44.5343 88.3765 45.1583 88.342C45.4143 88.3305 45.6463 88.4082 45.8543 88.5749C46.2223 88.8739 46.6383 88.8711 47.1023 88.5663C47.2179 88.4919 47.3483 88.4492 47.4822 88.4416C47.6161 88.4341 47.7493 88.4621 47.8702 88.5232C49.1876 89.1787 50.3023 88.9257 51.2143 87.7642C51.369 87.5629 51.5663 87.4738 51.8063 87.4968C53.0916 87.6061 54.1263 87.1259 54.9103 86.0564C55.081 85.8207 55.3049 85.6913 55.5823 85.6683C56.5689 85.5936 57.3663 85.1479 57.9743 84.3315C58.1556 84.0957 58.3743 83.9175 58.6303 83.7967C61.2623 82.572 63.6383 81.7526 65.7103 79.3807C67.9823 76.776 70.5583 74.5564 73.4383 72.7222C73.6743 72.5695 73.944 72.4835 74.2223 72.4721C77.9583 72.36 77.4383 68.0733 80.6863 68.3752C80.9316 68.3982 81.1209 68.2947 81.2543 68.0647C83.1583 64.7527 85.3183 62.6223 87.7343 61.6736C93.5903 59.3879 100.494 55.5067 106.758 56.1363C111.062 56.5676 113.918 58.7152 118.774 57.5336C118.94 57.4876 119.542 57.4329 120.582 57.3697C121.678 57.3007 122.19 56.5503 122.926 56.2226C125.097 55.2681 127.313 54.4745 129.574 53.842C133.382 52.7725 134.926 49.1414 138.646 48.6153C139.793 48.4543 141.092 47.3705 142.542 45.3637C142.635 45.2343 142.752 45.1291 142.887 45.056C143.021 44.9828 143.169 44.9435 143.318 44.941C145.009 44.8893 146.302 44.1476 147.198 42.7158C147.361 42.4606 147.578 42.2507 147.83 42.1034C150.332 40.6429 152.886 39.3089 155.494 38.1014C155.75 37.9864 155.953 37.8053 156.102 37.558C156.705 36.5633 157.449 35.7612 158.334 35.1517L159.062 35.8072C159.286 36.0027 159.508 35.9998 159.726 35.7986C165.222 30.6926 169.366 27.1649 173.542 36.4454C174.705 39.0387 175.814 41.6434 176.87 44.2597C176.973 44.5182 177.164 44.7242 177.404 44.835C177.644 44.9458 177.914 44.9529 178.158 44.8548C182.878 42.9573 187.302 40.3784 189.558 47.7097C190.588 51.0504 191.228 53.5517 191.478 55.2134Z" fill="#3F333C"/>
<path d="M191.478 55.2135L193.022 59.2759C193.134 59.5749 193.34 59.7013 193.638 59.6553C198.398 58.9395 203.742 56.0156 204.782 63.8816C205.3 67.8261 205.38 71.6039 205.022 75.2149C204.916 76.2671 205.062 77.1612 205.462 77.8972C205.528 78.0221 205.628 78.1226 205.748 78.1857C205.867 78.2488 206.002 78.2715 206.134 78.2509C209.438 77.7334 214.478 75.8531 216.99 79.4756C219.238 82.71 216.518 88.6009 215.198 92.0077C215.123 92.2004 215.089 92.4092 215.101 92.618C215.112 92.8268 215.168 93.03 215.264 93.2118C215.36 93.3936 215.493 93.5491 215.654 93.6663C215.814 93.7836 215.998 93.8594 216.19 93.888C225.406 95.2766 229.174 101.487 222.638 110.112C222.545 110.233 222.48 110.376 222.446 110.529C222.412 110.682 222.41 110.842 222.442 110.996C222.473 111.15 222.537 111.295 222.628 111.42C222.719 111.545 222.834 111.646 222.966 111.716C230.462 115.675 226.126 121.6 222.438 126.042C222.398 126.09 222.368 126.146 222.351 126.208C222.334 126.27 222.329 126.335 222.339 126.399C222.348 126.463 222.37 126.523 222.404 126.576C222.438 126.63 222.482 126.674 222.534 126.706C227.55 129.794 230.622 132.588 224.67 137.832C224.627 137.871 224.592 137.919 224.567 137.973C224.542 138.028 224.529 138.087 224.527 138.148C224.526 138.208 224.536 138.268 224.558 138.324C224.58 138.38 224.613 138.43 224.654 138.471C232.254 146.017 227.942 150.735 222.622 157.006C222.546 157.095 222.502 157.211 222.498 157.333C222.493 157.456 222.529 157.578 222.598 157.678C224.542 160.352 228.07 163.82 224.006 166.976C220.556 169.65 216.43 170.291 211.63 168.9C216.468 163.46 218.582 157.009 217.974 149.545C217.542 144.172 214.774 138.635 209.67 137.263C206.118 136.297 203.11 137.703 201.294 141.084C201.054 141.527 200.894 141.495 200.814 140.989C199.63 133.698 197.972 126.522 195.838 119.461C195.743 119.149 195.546 118.885 195.285 118.717C195.023 118.549 194.714 118.489 194.414 118.547C187.158 119.935 191.046 106.8 184.518 106.558C179.126 106.351 178.878 103.298 176.95 98.6059C178.278 98.8014 178.977 99.5489 179.046 100.848C179.049 100.919 179.07 100.987 179.107 101.046C179.144 101.104 179.195 101.15 179.255 101.179C179.315 101.207 179.381 101.218 179.446 101.208C179.511 101.198 179.572 101.169 179.622 101.124L181.566 99.4253C181.63 99.3695 181.681 99.2991 181.716 99.2193C181.751 99.1395 181.77 99.0522 181.77 98.9638C181.77 98.8754 181.751 98.7882 181.716 98.7084C181.681 98.6286 181.63 98.5582 181.566 98.5024C178.79 96.0874 183.046 93.5085 183.334 91.404C183.614 89.3081 185.31 89.3081 186.734 88.7044C186.996 88.5951 187.126 88.391 187.126 88.092C187.132 87.609 187.337 87.2209 187.742 86.9276C187.851 86.8475 187.94 86.7396 188.001 86.6133C188.062 86.4871 188.094 86.3462 188.094 86.2031V81.3731C188.093 81.3139 188.107 81.2556 188.133 81.2038C188.16 81.152 188.199 81.1084 188.246 81.0772C188.293 81.0461 188.348 81.0284 188.404 81.0258C188.46 81.0232 188.516 81.0359 188.566 81.0626L189.278 81.4507C189.331 81.4817 189.392 81.4929 189.451 81.4826C189.511 81.4723 189.565 81.441 189.606 81.3937C189.648 81.3463 189.673 81.2856 189.679 81.221C189.685 81.1564 189.67 81.0916 189.638 81.0368C188.198 78.4838 183.782 71.1956 187.662 71.325C187.95 71.3365 188.094 71.1841 188.094 70.8678V70.6522C188.094 70.5264 188.124 70.4024 188.181 70.2921C188.239 70.1819 188.322 70.0891 188.422 70.0226L192.118 67.5904C192.368 67.4262 192.586 67.21 192.758 66.9544C192.93 66.6987 193.053 66.4087 193.12 66.1012C193.187 65.7938 193.197 65.4751 193.148 65.1636C193.1 64.8521 192.994 64.5542 192.838 64.287C191.276 61.5845 190.822 58.56 191.478 55.2135Z" fill="#2D242F"/>
<path d="M169.141 96.4155C169.195 98.1462 168.533 99.6901 167.157 101.047C167.065 101.14 166.991 101.251 166.939 101.375C166.887 101.499 166.859 101.633 166.856 101.769C166.853 101.904 166.875 102.04 166.922 102.166C166.968 102.292 167.037 102.408 167.125 102.505L173.173 109.206C173.184 109.776 172.875 110.103 172.245 110.19C167.341 106.265 151.357 99.5463 147.693 108.603C146.589 111.345 147.381 114.744 149.837 116.348C153.085 118.478 157.045 116.124 160.573 116.132C164.936 116.149 169.021 117.512 172.829 120.22C172.605 120.422 172.328 120.422 171.997 120.22C171.816 120.111 171.717 120.172 171.701 120.402C171.696 120.476 171.693 120.551 171.693 120.626C171.694 120.674 171.684 120.722 171.664 120.766C171.645 120.809 171.616 120.847 171.581 120.877C171.546 120.906 171.506 120.926 171.463 120.935C171.42 120.944 171.375 120.941 171.333 120.928C171.248 120.905 171.173 120.87 171.109 120.824C170.896 120.692 170.739 120.747 170.637 120.988C169.629 123.472 168.549 129.484 166.765 131.045C147.757 127.741 144.181 162.474 162.365 165.234C161.997 166.126 161.987 167.002 162.333 167.865C162.435 168.124 162.392 168.354 162.205 168.555C160.997 169.857 159.309 171.384 158.669 172.893C156.277 178.586 163.397 182.588 167.589 182.769C170.992 182.907 174.413 182.211 177.853 180.682C173.992 190.882 167.323 198.257 157.845 202.805C157.056 203.184 156.176 203.952 155.205 205.108C155.056 205.286 154.875 205.412 154.661 205.487L140.621 210.291C140.813 210.47 140.544 210.656 139.813 210.852C128.237 211.749 122.069 211.223 112.981 210.628C91.3413 206.169 72.0533 194.973 61.2213 173.782C61.088 173.517 60.8827 173.414 60.6054 173.471C53.784 174.949 47.9014 173.123 42.9574 167.994C43.4374 167.695 43.2054 167.347 42.2614 166.951C42.0364 166.855 41.8399 166.694 41.6934 166.485C37.2294 160.125 36.0694 153.182 38.2134 145.656C39.6294 140.688 45.6294 134.736 50.8534 138.221C52.1707 139.101 53.4427 141.133 54.6693 144.319C54.8827 144.876 54.9893 144.853 54.9893 144.25C54.9813 138.842 56.1893 120.893 61.4213 117.478C63.4933 116.124 66.5654 114.907 67.1094 111.88C67.5467 109.471 68.2347 107.156 69.1733 104.937C69.226 104.809 69.3024 104.695 69.3974 104.602C69.4924 104.508 69.6041 104.437 69.7253 104.394C76.9893 101.651 78.3013 101.245 80.7893 93.0431C80.8789 92.7493 81.0625 92.4995 81.3073 92.3383C81.552 92.1771 81.842 92.1151 82.1253 92.1633C88.4373 93.2501 90.3494 88.3166 92.8534 83.1933C92.9137 83.0681 93.0043 82.9628 93.1155 82.8884C93.2267 82.8141 93.3545 82.7734 93.4853 82.7707C96.7013 82.6758 99.2213 83.3227 101.293 79.9503C101.499 79.6131 101.775 79.3329 102.099 79.1321C102.423 78.9313 102.785 78.8157 103.157 78.7946C107.877 78.5013 109.957 76.6297 113.317 73.4385C113.415 73.3446 113.534 73.2806 113.662 73.2533C113.79 73.226 113.922 73.2363 114.045 73.2832C114.925 73.6196 115.645 74.5683 116.405 74.8702C119.877 76.2617 123.584 75.9426 127.525 73.9128C129.909 72.6795 132.045 77.0178 133.373 78.6135C137.197 83.1847 142.373 79.7692 146.053 77.4059C146.223 77.2953 146.412 77.2224 146.609 77.1915C146.806 77.1607 147.007 77.1724 147.2 77.2262C147.394 77.2799 147.576 77.3746 147.736 77.5046C147.896 77.6346 148.031 77.7975 148.133 77.9838C149.645 80.7352 153.485 88.7133 156.325 89.1618C158.205 89.4551 160.949 87.9716 162.589 87.0056C162.695 86.9438 162.812 86.906 162.932 86.8944C163.052 86.8828 163.173 86.8976 163.287 86.9379C163.402 86.9783 163.507 87.0433 163.598 87.1291C163.688 87.2148 163.762 87.3195 163.813 87.4368C165.237 90.6741 167.013 93.667 169.141 96.4155ZM95.6054 116.322C100.029 116.46 104.701 119.341 108.005 115.08C110.557 111.777 109.477 106.998 105.909 105.118C104.688 104.474 103.011 104.175 100.877 104.221C89.0853 104.506 75.1973 112.406 73.2773 126.439C73.2496 126.651 73.2826 126.867 73.3717 127.058C73.4609 127.249 73.6019 127.406 73.7757 127.508C73.9495 127.61 74.1476 127.651 74.3433 127.627C74.5389 127.602 74.7225 127.513 74.8693 127.371C80.7733 121.721 86.8374 116.046 95.6054 116.322ZM87.3654 163.699C107.557 172.54 110.101 133.132 93.1094 130.829C75.3734 128.423 71.1414 156.609 87.3654 163.699ZM47.9174 164.044C51.5254 167.253 57.4213 168.236 56.1813 160.629C55.4933 156.42 52.8694 145.328 49.1174 143.223C47.368 142.234 45.7413 142.763 44.2373 144.81C39.8293 150.805 42.8294 159.507 47.9174 164.044ZM124.717 171.013L124.693 168.633C124.69 168.476 124.647 168.323 124.568 168.191C124.489 168.059 124.377 167.954 124.246 167.888C124.115 167.821 123.97 167.796 123.827 167.815C123.684 167.834 123.549 167.896 123.437 167.994C122.509 168.805 122.352 169.716 122.965 170.728C123.12 170.987 123.339 171.125 123.621 171.142L124.453 171.186C123.813 172.244 123.659 173.422 123.989 174.722C124.053 174.963 124.203 175.104 124.437 175.144C126.811 175.541 128.656 175.035 129.973 173.626C134.613 168.653 134.477 163.846 129.565 159.205C128.936 158.607 128.267 158.467 127.557 158.783C127.502 158.806 127.453 158.845 127.415 158.895C127.378 158.945 127.353 159.005 127.343 159.068C127.333 159.132 127.339 159.197 127.36 159.257C127.381 159.318 127.416 159.371 127.461 159.412C131.661 163.147 128.885 169.021 124.717 171.013ZM72.0454 182.208C77.5707 186.118 83.2774 186.716 89.1654 184.002C93.3654 182.062 95.1654 177.482 92.2454 173.221C88.0854 167.132 78.4134 163.828 72.0534 167.46C66.4054 170.677 67.0454 178.672 72.0454 182.208ZM108.445 178.534C107.213 178.344 106.573 179.992 106.949 181.156C108.317 185.451 115.149 189.548 118.789 190.773C128.413 194.016 142.565 192.377 148.045 181.579C148.173 181.331 148.2 181.073 148.125 180.802C147.827 179.71 146.885 179.149 145.301 179.121C132.917 180.095 123.197 181.182 111.109 176.688C110.059 176.297 109.171 176.913 108.445 178.534Z" fill="#B0624E"/>
<path d="M169.142 96.4147L170.118 97.165C170.363 97.3548 170.635 97.4295 170.934 97.3892C174.155 96.935 176.161 97.3404 176.95 98.6054C178.878 103.297 179.126 106.351 184.518 106.558C191.046 106.799 187.158 119.935 194.414 118.546C194.714 118.488 195.023 118.549 195.284 118.717C195.546 118.885 195.743 119.149 195.838 119.461C197.971 126.522 199.63 133.698 200.814 140.989C200.894 141.495 201.054 141.526 201.294 141.084C203.11 137.703 206.118 136.297 209.67 137.263C214.774 138.634 217.542 144.171 217.974 149.545C218.582 157.008 216.467 163.46 211.63 168.899C206.222 173.574 200.126 175.627 193.254 173.591C193.135 173.556 193.01 173.564 192.896 173.614C192.783 173.664 192.69 173.753 192.63 173.867C181.814 194.377 162.126 206.875 140.622 210.291L154.662 205.486C154.875 205.412 155.057 205.285 155.206 205.107C156.177 203.951 157.057 203.184 157.846 202.804C167.323 198.256 173.993 190.881 177.854 180.681L180.798 165.527C180.822 165.394 180.879 165.271 180.964 165.171C181.049 165.071 181.157 164.997 181.278 164.958C184.606 163.862 188.03 164.776 191.158 165.613C191.344 165.662 191.537 165.671 191.725 165.638C191.914 165.605 192.095 165.531 192.256 165.42C192.418 165.31 192.557 165.165 192.665 164.995C192.773 164.825 192.848 164.634 192.886 164.431C194.721 154.133 194.873 144.22 193.342 134.692C192.582 129.949 190.286 128.215 187.518 125.11C184.246 121.427 182.358 117.02 178.526 113.466C177.094 112.147 174.806 111.198 173.174 109.206L167.126 102.504C167.038 102.407 166.969 102.292 166.922 102.165C166.876 102.039 166.854 101.904 166.857 101.768C166.86 101.632 166.888 101.498 166.94 101.374C166.992 101.25 167.066 101.139 167.158 101.046C168.534 99.6893 169.195 98.1454 169.142 96.4147Z" fill="#9D473C"/>
<path d="M95.6061 116.321C86.8381 116.045 80.7741 121.721 74.8701 127.37C74.7233 127.512 74.5397 127.601 74.344 127.626C74.1484 127.651 73.9502 127.609 73.7764 127.508C73.6027 127.406 73.4616 127.249 73.3725 127.058C73.2834 126.866 73.2504 126.65 73.2781 126.439C75.1981 112.406 89.0861 104.505 100.878 104.221C103.011 104.175 104.689 104.474 105.91 105.118C109.478 106.998 110.558 111.776 108.006 115.079C104.702 119.34 100.03 116.459 95.6061 116.321Z" fill="#4B3D44"/>
<path d="M172.246 110.188C176.542 114.164 181.03 119.011 182.166 125.213C182.395 126.46 182.003 127.107 180.99 127.153C180.68 127.164 180.379 127.054 180.142 126.843L172.83 120.219C169.022 117.511 164.937 116.148 160.574 116.131C157.046 116.122 153.086 118.477 149.838 116.346C147.382 114.742 146.59 111.344 147.694 108.601C151.358 99.5446 167.342 106.263 172.246 110.188Z" fill="#4B3D44"/>
<path d="M173.174 109.206C174.806 111.198 177.094 112.147 178.526 113.466C182.358 117.02 184.246 121.427 187.518 125.11C190.286 128.215 192.582 129.949 193.342 134.693C194.873 144.22 194.721 154.133 192.886 164.432C192.848 164.634 192.773 164.826 192.665 164.995C192.557 165.165 192.418 165.31 192.256 165.42C192.095 165.531 191.914 165.605 191.725 165.638C191.537 165.671 191.344 165.663 191.158 165.613C188.03 164.777 184.606 163.862 181.278 164.958C181.157 164.997 181.048 165.071 180.964 165.171C180.879 165.272 180.822 165.395 180.798 165.527L177.854 180.681C174.414 182.211 170.993 182.906 167.59 182.768C163.398 182.587 156.278 178.585 158.67 172.893C159.31 171.383 160.998 169.857 162.206 168.554C162.393 168.353 162.435 168.123 162.334 167.864C161.987 167.002 161.998 166.125 162.366 165.234C179.934 162.732 183.798 138.548 166.766 131.044C168.55 129.483 169.63 123.471 170.638 120.987C170.739 120.746 170.897 120.691 171.11 120.824C171.174 120.87 171.249 120.904 171.334 120.927C171.376 120.941 171.42 120.943 171.463 120.934C171.506 120.925 171.547 120.905 171.582 120.876C171.617 120.847 171.645 120.809 171.665 120.765C171.684 120.722 171.694 120.674 171.694 120.625C171.694 120.55 171.697 120.476 171.702 120.401C171.718 120.171 171.817 120.111 171.998 120.22C172.329 120.421 172.606 120.421 172.83 120.22L180.142 126.844C180.379 127.055 180.68 127.165 180.99 127.154C182.003 127.108 182.395 126.461 182.166 125.214C181.03 119.012 176.542 114.165 172.246 110.189C172.875 110.103 173.185 109.775 173.174 109.206Z" fill="#A45445"/>
<path d="M93.1105 130.828C110.102 133.13 107.558 172.538 87.3665 163.697C71.1425 156.608 75.3745 128.421 93.1105 130.828ZM92.1608 164.536C93.5104 164.656 94.8758 164.395 96.1788 163.769C97.4819 163.143 98.6972 162.164 99.7554 160.888C100.813 159.611 101.694 158.063 102.346 156.33C102.998 154.598 103.409 152.716 103.556 150.791C103.703 148.866 103.582 146.937 103.201 145.113C102.82 143.289 102.187 141.606 101.336 140.161C100.485 138.715 99.4348 137.535 98.244 136.688C97.0533 135.841 95.7458 135.344 94.3961 135.224C93.0465 135.104 91.6812 135.365 90.3781 135.991C89.075 136.617 87.8597 137.596 86.8016 138.872C85.7435 140.149 84.8632 141.697 84.2111 143.43C83.559 145.162 83.1479 147.044 83.0011 148.969C82.8543 150.894 82.9748 152.823 83.3557 154.647C83.7366 156.471 84.3704 158.154 85.221 159.6C86.0715 161.045 87.1221 162.225 88.3129 163.072C89.5036 163.919 90.8111 164.417 92.1608 164.536Z" fill="#FEFEFE"/>
<path d="M166.765 131.045C183.797 138.549 179.933 162.733 162.365 165.235C144.181 162.475 147.757 127.742 166.765 131.045ZM162.551 164.503C165.317 164.331 167.887 162.619 169.696 159.744C171.505 156.869 172.404 153.067 172.196 149.173C171.988 145.279 170.689 141.614 168.586 138.982C166.482 136.35 163.747 134.968 160.98 135.14C158.214 135.312 155.643 137.024 153.835 139.899C152.026 142.774 151.126 146.576 151.335 150.47C151.543 154.364 152.842 158.03 154.945 160.661C157.048 163.293 159.784 164.675 162.551 164.503Z" fill="#FEFEFE"/>
<path d="M162.552 164.503C159.786 164.675 157.05 163.293 154.946 160.661C152.843 158.03 151.544 154.364 151.336 150.47C151.128 146.576 152.027 142.774 153.836 139.899C155.645 137.024 158.215 135.312 160.982 135.14C163.748 134.968 166.484 136.35 168.587 138.982C170.691 141.614 171.989 145.28 172.197 149.173C172.406 153.067 171.506 156.869 169.698 159.744C167.889 162.619 165.318 164.331 162.552 164.503ZM163.734 147.131C163.729 146.888 163.68 146.649 163.59 146.427C163.5 146.205 163.37 146.005 163.207 145.837C163.045 145.669 162.854 145.538 162.644 145.45C162.435 145.362 162.211 145.319 161.987 145.324L161.555 145.334C161.33 145.339 161.108 145.391 160.902 145.489C160.697 145.586 160.51 145.727 160.355 145.901C160.199 146.076 160.077 146.283 159.995 146.509C159.914 146.734 159.874 146.975 159.879 147.218L159.944 150.546C159.948 150.788 159.997 151.027 160.088 151.249C160.178 151.471 160.308 151.672 160.47 151.84C160.632 152.008 160.824 152.139 161.033 152.227C161.243 152.315 161.466 152.358 161.691 152.353L162.123 152.343C162.348 152.338 162.569 152.285 162.775 152.188C162.981 152.09 163.167 151.95 163.323 151.775C163.478 151.6 163.601 151.394 163.682 151.168C163.764 150.942 163.803 150.701 163.799 150.459L163.734 147.131Z" fill="#07080B"/>
<path d="M92.1607 164.538C90.8111 164.418 89.5035 163.92 88.3128 163.073C87.1221 162.226 86.0715 161.046 85.2209 159.601C84.3703 158.155 83.7365 156.472 83.3556 154.648C82.9747 152.824 82.8543 150.895 83.001 148.97C83.1478 147.046 83.559 145.163 84.211 143.431C84.8631 141.699 85.7434 140.15 86.8015 138.874C87.8596 137.597 89.075 136.618 90.378 135.992C91.6811 135.366 93.0464 135.106 94.396 135.225C95.7457 135.345 97.0532 135.842 98.2439 136.689C99.4347 137.537 100.485 138.717 101.336 140.162C102.186 141.608 102.82 143.29 103.201 145.114C103.582 146.938 103.703 148.868 103.556 150.792C103.409 152.717 102.998 154.599 102.346 156.332C101.694 158.064 100.813 159.613 99.7553 160.889C98.6971 162.165 97.4818 163.145 96.1788 163.771C94.8757 164.397 93.5103 164.657 92.1607 164.538ZM95.243 146.908C95.2331 146.469 95.0618 146.053 94.7667 145.75C94.4717 145.447 94.0772 145.283 93.67 145.293L92.9662 145.312C92.5589 145.323 92.1723 145.507 91.8914 145.825C91.6104 146.143 91.4582 146.569 91.4682 147.008L91.5538 150.784C91.5637 151.224 91.735 151.64 92.03 151.943C92.325 152.246 92.7196 152.41 93.1268 152.399L93.8306 152.381C94.2379 152.37 94.6245 152.185 94.9054 151.867C95.1863 151.549 95.3386 151.124 95.3286 150.685L95.243 146.908Z" fill="#07080B"/>
<path d="M47.9178 164.043C42.8298 159.506 39.8297 150.803 44.2377 144.809C45.7417 142.762 47.3684 142.233 49.1178 143.222C52.8698 145.326 55.4937 156.418 56.1817 160.627C57.4217 168.234 51.5258 167.251 47.9178 164.043Z" fill="#9D473C"/>
<path d="M93.671 145.292L92.9672 145.311C92.1191 145.333 91.4484 146.093 91.4692 147.007L91.5548 150.784C91.5755 151.698 92.2798 152.421 93.1278 152.399L93.8316 152.38C94.6797 152.358 95.3504 151.598 95.3297 150.684L95.244 146.907C95.2233 145.993 94.519 145.27 93.671 145.292Z" fill="#FEFEFE"/>
<path d="M161.985 145.323L161.553 145.333C160.608 145.354 159.858 146.198 159.878 147.217L159.942 150.546C159.962 151.565 160.744 152.374 161.69 152.352L162.122 152.343C163.067 152.321 163.817 151.478 163.797 150.459L163.733 147.13C163.713 146.111 162.931 145.302 161.985 145.323Z" fill="#FEFEFE"/>
<path d="M124.455 171.184C124.583 171.173 124.671 171.115 124.719 171.012C128.887 169.019 131.663 163.146 127.463 159.411C127.418 159.37 127.382 159.316 127.362 159.256C127.341 159.196 127.335 159.13 127.345 159.067C127.355 159.003 127.379 158.944 127.417 158.894C127.455 158.844 127.504 158.805 127.559 158.782C128.269 158.465 128.938 158.606 129.567 159.204C134.479 163.844 134.615 168.651 129.975 173.625C128.658 175.034 126.813 175.54 124.439 175.143C124.205 175.103 124.055 174.962 123.991 174.721C123.661 173.421 123.815 172.242 124.455 171.184Z" fill="#A45445"/>
<path d="M72.0452 182.207C67.0452 178.67 66.4052 170.675 72.0532 167.458C78.4132 163.827 88.0852 167.13 92.2452 173.219C95.1652 177.48 93.3653 182.06 89.1653 184.001C83.2773 186.715 77.5706 186.117 72.0452 182.207Z" fill="#A45445"/>
<path d="M124.718 171.013C124.67 171.116 124.582 171.174 124.454 171.185L123.622 171.142C123.339 171.125 123.12 170.987 122.966 170.728C122.352 169.716 122.51 168.805 123.438 167.994C123.549 167.896 123.684 167.833 123.827 167.815C123.971 167.796 124.116 167.821 124.247 167.888C124.378 167.954 124.489 168.059 124.568 168.191C124.647 168.323 124.691 168.476 124.694 168.632L124.718 171.013Z" fill="#CD7A4E"/>
<path d="M145.303 179.119C137.599 192.204 116.583 189.444 108.447 178.533C109.173 176.911 110.061 176.296 111.111 176.687C123.199 181.181 132.919 180.094 145.303 179.119Z" fill="#FEFEFE"/>
<path d="M108.447 178.534C116.583 189.445 137.599 192.205 145.303 179.12C146.887 179.149 147.828 179.71 148.127 180.802C148.202 181.073 148.175 181.331 148.047 181.579C142.567 192.377 128.415 194.016 118.791 190.773C115.151 189.548 108.319 185.451 106.951 181.156C106.575 179.992 107.215 178.344 108.447 178.534Z" fill="#141319"/>
<path d="M112.983 210.627C122.071 211.222 128.239 211.748 139.815 210.851L147.279 212.705C145.415 228.032 124.567 227.247 114.975 223.633C109.847 221.71 107.119 218.441 105.911 212.895C108.834 212.786 111.191 212.03 112.983 210.627Z" fill="#9D473C"/>
<path d="M147.278 212.706L152.222 213.758C153.321 216.897 153.153 220.112 151.718 223.401C150.971 225.108 149.534 226.379 147.406 227.213C134.718 228.61 124.31 229.878 112.782 226.049C106.07 223.815 103.542 222.003 101.878 214.034L105.91 212.895C107.118 218.441 109.846 221.71 114.974 223.634C124.566 227.247 145.414 228.032 147.278 212.706Z" fill="#380E6A"/>
<path d="M152.222 213.759L158.574 215.363C168.734 220.667 175.358 224.454 179.39 236.874C179.523 237.288 179.498 237.742 179.321 238.136C179.145 238.53 178.83 238.833 178.446 238.978L165.054 243.912C165.593 243.061 166.47 242.46 167.686 242.109C168.001 242.023 168.044 241.853 167.814 241.6C166.598 240.28 166.806 238.366 166.414 237.081C163.486 227.412 155.19 227.843 147.406 227.214C149.534 226.38 150.972 225.109 151.718 223.401C153.153 220.112 153.321 216.898 152.222 213.759Z" fill="#1B3A79"/>
<path d="M101.879 214.035C103.543 222.004 106.071 223.816 112.783 226.049C124.311 229.879 134.719 228.611 147.407 227.214C155.191 227.843 163.487 227.412 166.415 237.081C166.807 238.366 166.599 240.281 167.815 241.6C168.044 241.853 168.001 242.023 167.687 242.109C166.471 242.46 165.593 243.061 165.055 243.912C136.551 252.813 104.903 250.57 77.2147 239.936L73.0307 238.331C72.7213 238.211 72.6093 237.981 72.6947 237.641C76.1827 223.445 89.4947 216.381 101.879 214.035Z" fill="#375B8B"/>
</svg>
